%TF.GenerationSoftware,KiCad,Pcbnew,9.0.6*%
%TF.CreationDate,2025-12-28T22:24:58-08:00*%
%TF.ProjectId,neodrone-v1,6e656f64-726f-46e6-952d-76312e6b6963,rev?*%
%TF.SameCoordinates,Original*%
%TF.FileFunction,Copper,L1,Top*%
%TF.FilePolarity,Positive*%
%FSLAX46Y46*%
G04 Gerber Fmt 4.6, Leading zero omitted, Abs format (unit mm)*
G04 Created by KiCad (PCBNEW 9.0.6) date 2025-12-28 22:24:58*
%MOMM*%
%LPD*%
G01*
G04 APERTURE LIST*
G04 Aperture macros list*
%AMRoundRect*
0 Rectangle with rounded corners*
0 $1 Rounding radius*
0 $2 $3 $4 $5 $6 $7 $8 $9 X,Y pos of 4 corners*
0 Add a 4 corners polygon primitive as box body*
4,1,4,$2,$3,$4,$5,$6,$7,$8,$9,$2,$3,0*
0 Add four circle primitives for the rounded corners*
1,1,$1+$1,$2,$3*
1,1,$1+$1,$4,$5*
1,1,$1+$1,$6,$7*
1,1,$1+$1,$8,$9*
0 Add four rect primitives between the rounded corners*
20,1,$1+$1,$2,$3,$4,$5,0*
20,1,$1+$1,$4,$5,$6,$7,0*
20,1,$1+$1,$6,$7,$8,$9,0*
20,1,$1+$1,$8,$9,$2,$3,0*%
G04 Aperture macros list end*
%TA.AperFunction,SMDPad,CuDef*%
%ADD10RoundRect,0.237500X0.250000X0.237500X-0.250000X0.237500X-0.250000X-0.237500X0.250000X-0.237500X0*%
%TD*%
%TA.AperFunction,SMDPad,CuDef*%
%ADD11RoundRect,0.075000X-0.662500X-0.075000X0.662500X-0.075000X0.662500X0.075000X-0.662500X0.075000X0*%
%TD*%
%TA.AperFunction,SMDPad,CuDef*%
%ADD12RoundRect,0.075000X-0.075000X-0.662500X0.075000X-0.662500X0.075000X0.662500X-0.075000X0.662500X0*%
%TD*%
%TA.AperFunction,SMDPad,CuDef*%
%ADD13RoundRect,0.237500X-0.237500X0.300000X-0.237500X-0.300000X0.237500X-0.300000X0.237500X0.300000X0*%
%TD*%
%TA.AperFunction,SMDPad,CuDef*%
%ADD14RoundRect,0.250001X-0.462499X-0.849999X0.462499X-0.849999X0.462499X0.849999X-0.462499X0.849999X0*%
%TD*%
%TA.AperFunction,SMDPad,CuDef*%
%ADD15RoundRect,0.250000X-0.412500X-0.650000X0.412500X-0.650000X0.412500X0.650000X-0.412500X0.650000X0*%
%TD*%
%TA.AperFunction,SMDPad,CuDef*%
%ADD16RoundRect,0.237500X-0.300000X-0.237500X0.300000X-0.237500X0.300000X0.237500X-0.300000X0.237500X0*%
%TD*%
%TA.AperFunction,ComponentPad*%
%ADD17C,1.700000*%
%TD*%
%TA.AperFunction,ComponentPad*%
%ADD18R,1.700000X1.700000*%
%TD*%
%TA.AperFunction,SMDPad,CuDef*%
%ADD19RoundRect,0.075000X-0.350000X-0.075000X0.350000X-0.075000X0.350000X0.075000X-0.350000X0.075000X0*%
%TD*%
%TA.AperFunction,SMDPad,CuDef*%
%ADD20RoundRect,0.075000X0.075000X-0.350000X0.075000X0.350000X-0.075000X0.350000X-0.075000X-0.350000X0*%
%TD*%
%TA.AperFunction,SMDPad,CuDef*%
%ADD21RoundRect,0.237500X0.237500X-0.300000X0.237500X0.300000X-0.237500X0.300000X-0.237500X-0.300000X0*%
%TD*%
%TA.AperFunction,SMDPad,CuDef*%
%ADD22RoundRect,0.237500X0.300000X0.237500X-0.300000X0.237500X-0.300000X-0.237500X0.300000X-0.237500X0*%
%TD*%
%TA.AperFunction,ViaPad*%
%ADD23C,0.600000*%
%TD*%
%TA.AperFunction,Conductor*%
%ADD24C,0.200000*%
%TD*%
G04 APERTURE END LIST*
D10*
%TO.P,R1,2*%
%TO.N,Net-(J1-RESET)*%
X153266231Y-83077674D03*
%TO.P,R1,1*%
%TO.N,+3V3*%
X155091231Y-83077674D03*
%TD*%
D11*
%TO.P,U1,1,PA00*%
%TO.N,unconnected-(U1-PA00-Pad1)*%
X147752500Y-88912500D03*
%TO.P,U1,2,PA01*%
%TO.N,unconnected-(U1-PA01-Pad2)*%
X147752500Y-89412500D03*
%TO.P,U1,3,PA02*%
%TO.N,unconnected-(U1-PA02-Pad3)*%
X147752500Y-89912500D03*
%TO.P,U1,4,PA03*%
%TO.N,unconnected-(U1-PA03-Pad4)*%
X147752500Y-90412500D03*
%TO.P,U1,5,GNDANA*%
%TO.N,GND*%
X147752500Y-90912500D03*
%TO.P,U1,6,VDDANA*%
%TO.N,+3V3*%
X147752500Y-91412500D03*
%TO.P,U1,7,PB08*%
%TO.N,unconnected-(U1-PB08-Pad7)*%
X147752500Y-91912500D03*
%TO.P,U1,8,PB09*%
%TO.N,unconnected-(U1-PB09-Pad8)*%
X147752500Y-92412500D03*
%TO.P,U1,9,PA04*%
%TO.N,unconnected-(U1-PA04-Pad9)*%
X147752500Y-92912500D03*
%TO.P,U1,10,PA05*%
%TO.N,unconnected-(U1-PA05-Pad10)*%
X147752500Y-93412500D03*
%TO.P,U1,11,PA06*%
%TO.N,unconnected-(U1-PA06-Pad11)*%
X147752500Y-93912500D03*
%TO.P,U1,12,PA07*%
%TO.N,unconnected-(U1-PA07-Pad12)*%
X147752500Y-94412500D03*
D12*
%TO.P,U1,13,PA08*%
%TO.N,/mcu/I2C_SDA*%
X149165000Y-95825000D03*
%TO.P,U1,14,PA09*%
%TO.N,/mcu/I2C_SCL*%
X149665000Y-95825000D03*
%TO.P,U1,15,PA10*%
%TO.N,/mcu/CRSF_TX*%
X150165000Y-95825000D03*
%TO.P,U1,16,PA11*%
%TO.N,/mcu/CRSF_RX*%
X150665000Y-95825000D03*
%TO.P,U1,17,VDDIO*%
%TO.N,+3V3*%
X151165000Y-95825000D03*
%TO.P,U1,18,GND*%
%TO.N,GND*%
X151665000Y-95825000D03*
%TO.P,U1,19,PB10*%
%TO.N,IMU_MOSI*%
X152165000Y-95825000D03*
%TO.P,U1,20,PB11*%
%TO.N,IMU_SCK*%
X152665000Y-95825000D03*
%TO.P,U1,21,PA12*%
%TO.N,IMU_MISO*%
X153165000Y-95825000D03*
%TO.P,U1,22,PA13*%
%TO.N,IMU_CS*%
X153665000Y-95825000D03*
%TO.P,U1,23,PA14*%
%TO.N,IMU_INT*%
X154165000Y-95825000D03*
%TO.P,U1,24,PA15*%
%TO.N,unconnected-(U1-PA15-Pad24)*%
X154665000Y-95825000D03*
D11*
%TO.P,U1,25,PA16*%
%TO.N,/mcu/M1_PWM*%
X156077500Y-94412500D03*
%TO.P,U1,26,PA17*%
%TO.N,/mcu/M2_PWM*%
X156077500Y-93912500D03*
%TO.P,U1,27,PA18*%
%TO.N,/mcu/M3_PWM*%
X156077500Y-93412500D03*
%TO.P,U1,28,PA19*%
%TO.N,/mcu/M4_PWM*%
X156077500Y-92912500D03*
%TO.P,U1,29,PA20*%
%TO.N,unconnected-(U1-PA20-Pad29)*%
X156077500Y-92412500D03*
%TO.P,U1,30,PA21*%
%TO.N,unconnected-(U1-PA21-Pad30)*%
X156077500Y-91912500D03*
%TO.P,U1,31,PA22*%
%TO.N,unconnected-(U1-PA22-Pad31)*%
X156077500Y-91412500D03*
%TO.P,U1,32,PA23*%
%TO.N,unconnected-(U1-PA23-Pad32)*%
X156077500Y-90912500D03*
%TO.P,U1,33,PA24*%
%TO.N,/mcu/USB_DM*%
X156077500Y-90412500D03*
%TO.P,U1,34,PA25*%
%TO.N,/mcu/USB_DP*%
X156077500Y-89912500D03*
%TO.P,U1,35,GND*%
%TO.N,GND*%
X156077500Y-89412500D03*
%TO.P,U1,36,VDDIO*%
%TO.N,+3V3*%
X156077500Y-88912500D03*
D12*
%TO.P,U1,37,PB22*%
%TO.N,unconnected-(U1-PB22-Pad37)*%
X154665000Y-87500000D03*
%TO.P,U1,38,PB23*%
%TO.N,unconnected-(U1-PB23-Pad38)*%
X154165000Y-87500000D03*
%TO.P,U1,39,PA27*%
%TO.N,unconnected-(U1-PA27-Pad39)*%
X153665000Y-87500000D03*
%TO.P,U1,40,~{RESET}*%
%TO.N,Net-(J1-RESET)*%
X153165000Y-87500000D03*
%TO.P,U1,41,PA28*%
%TO.N,unconnected-(U1-PA28-Pad41)*%
X152665000Y-87500000D03*
%TO.P,U1,42,GND*%
%TO.N,GND*%
X152165000Y-87500000D03*
%TO.P,U1,43,VDDCORE*%
%TO.N,Net-(U1-VDDCORE)*%
X151665000Y-87500000D03*
%TO.P,U1,44,VDDIN*%
%TO.N,+3V3*%
X151165000Y-87500000D03*
%TO.P,U1,45,PA30*%
%TO.N,Net-(J1-SWDIO)*%
X150665000Y-87500000D03*
%TO.P,U1,46,PA31*%
%TO.N,Net-(U1-PA31)*%
X150165000Y-87500000D03*
%TO.P,U1,47,PB02*%
%TO.N,unconnected-(U1-PB02-Pad47)*%
X149665000Y-87500000D03*
%TO.P,U1,48,PB03*%
%TO.N,unconnected-(U1-PB03-Pad48)*%
X149165000Y-87500000D03*
%TD*%
D13*
%TO.P,C1,2*%
%TO.N,Net-(U1-VDDCORE)*%
X151671083Y-85638963D03*
%TO.P,C1,1*%
%TO.N,GND*%
X151671083Y-83913963D03*
%TD*%
D14*
%TO.P,L1,1*%
%TO.N,Net-(U3-SW_BK)*%
X128675000Y-87000000D03*
%TO.P,L1,2*%
%TO.N,/motor_esc/VBK_M1*%
X131000000Y-87000000D03*
%TD*%
D15*
%TO.P,C16,1*%
%TO.N,/motor_esc/VBK_M1*%
X128625000Y-83450000D03*
%TO.P,C16,2*%
%TO.N,/motor_esc/GND_BK_M1*%
X131750000Y-83450000D03*
%TD*%
D16*
%TO.P,C15,1*%
%TO.N,Net-(U3-DVDD)*%
X124145000Y-89720000D03*
%TO.P,C15,2*%
%TO.N,Net-(U3-DGND)*%
X125870000Y-89720000D03*
%TD*%
%TO.P,C14,1*%
%TO.N,Net-(U3-AVDD)*%
X124145000Y-87210000D03*
%TO.P,C14,2*%
%TO.N,Net-(U3-AGND)*%
X125870000Y-87210000D03*
%TD*%
%TO.P,C13,1*%
%TO.N,Net-(U3-CP)*%
X124145000Y-84700000D03*
%TO.P,C13,2*%
%TO.N,/motor_esc/VBAT*%
X125870000Y-84700000D03*
%TD*%
%TO.P,C12,1*%
%TO.N,Net-(U3-CPH)*%
X124145000Y-82190000D03*
%TO.P,C12,2*%
%TO.N,Net-(U3-CPL)*%
X125870000Y-82190000D03*
%TD*%
%TO.P,C11,1*%
%TO.N,/motor_esc/VBAT*%
X124145000Y-79680000D03*
%TO.P,C11,2*%
%TO.N,/motor_esc/PGND_M1*%
X125870000Y-79680000D03*
%TD*%
D15*
%TO.P,C10,1*%
%TO.N,/motor_esc/PGND_M1*%
X128625000Y-80100000D03*
%TO.P,C10,2*%
%TO.N,/motor_esc/VBAT*%
X131750000Y-80100000D03*
%TD*%
D17*
%TO.P,J1,5,GND*%
%TO.N,GND*%
X175500000Y-87960000D03*
%TO.P,J1,4,3V3*%
%TO.N,+3V3*%
X175500000Y-90500000D03*
%TO.P,J1,3,RESET*%
%TO.N,Net-(J1-RESET)*%
X175500000Y-93040000D03*
%TO.P,J1,2,SWCLK*%
%TO.N,Net-(J1-SWCLK)*%
X175500000Y-95580000D03*
D18*
%TO.P,J1,1,SWDIO*%
%TO.N,Net-(J1-SWDIO)*%
X175500000Y-98120000D03*
%TD*%
D10*
%TO.P,R2,2*%
%TO.N,Net-(U1-PA31)*%
X171087500Y-95500000D03*
%TO.P,R2,1*%
%TO.N,Net-(J1-SWCLK)*%
X172912500Y-95500000D03*
%TD*%
D19*
%TO.P,U2,1,CLKIN*%
%TO.N,unconnected-(U2-CLKIN-Pad1)*%
X149300000Y-108200000D03*
%TO.P,U2,2*%
%TO.N,N/C*%
X149300000Y-108700000D03*
%TO.P,U2,3*%
X149300000Y-109200000D03*
%TO.P,U2,4*%
X149300000Y-109700000D03*
%TO.P,U2,5*%
X149300000Y-110200000D03*
%TO.P,U2,6,AUX_DA*%
%TO.N,unconnected-(U2-AUX_DA-Pad6)*%
X149300000Y-110700000D03*
D20*
%TO.P,U2,7,AUX_CL*%
%TO.N,unconnected-(U2-AUX_CL-Pad7)*%
X150000000Y-111400000D03*
%TO.P,U2,8,~{CS}*%
%TO.N,IMU_CS*%
X150500000Y-111400000D03*
%TO.P,U2,9,AD0/MISO*%
%TO.N,IMU_MISO*%
X151000000Y-111400000D03*
%TO.P,U2,10,REGOUT*%
%TO.N,Net-(U2-REGOUT)*%
X151500000Y-111400000D03*
%TO.P,U2,11,FSYNC*%
%TO.N,GND*%
X152000000Y-111400000D03*
%TO.P,U2,12,INT*%
%TO.N,IMU_INT*%
X152500000Y-111400000D03*
D19*
%TO.P,U2,13,VDD*%
%TO.N,+3V3*%
X153200000Y-110700000D03*
%TO.P,U2,14*%
%TO.N,N/C*%
X153200000Y-110200000D03*
%TO.P,U2,15*%
X153200000Y-109700000D03*
%TO.P,U2,16*%
X153200000Y-109200000D03*
%TO.P,U2,17*%
X153200000Y-108700000D03*
%TO.P,U2,18,GND*%
%TO.N,GND*%
X153200000Y-108200000D03*
D20*
%TO.P,U2,19*%
%TO.N,N/C*%
X152500000Y-107500000D03*
%TO.P,U2,20,CPOUT*%
%TO.N,Net-(U2-CPOUT)*%
X152000000Y-107500000D03*
%TO.P,U2,21*%
%TO.N,N/C*%
X151500000Y-107500000D03*
%TO.P,U2,22*%
X151000000Y-107500000D03*
%TO.P,U2,23,SCL/SCLK*%
%TO.N,IMU_SCK*%
X150500000Y-107500000D03*
%TO.P,U2,24,SDA/MOSI*%
%TO.N,IMU_MOSI*%
X150000000Y-107500000D03*
%TD*%
D10*
%TO.P,R3,1*%
%TO.N,+3V3*%
X153412500Y-102500000D03*
%TO.P,R3,2*%
%TO.N,IMU_CS*%
X151587500Y-102500000D03*
%TD*%
D21*
%TO.P,C9,1*%
%TO.N,Net-(U2-CPOUT)*%
X152000000Y-105862500D03*
%TO.P,C9,2*%
%TO.N,GND*%
X152000000Y-104137500D03*
%TD*%
D22*
%TO.P,C8,1*%
%TO.N,GND*%
X157862500Y-110703125D03*
%TO.P,C8,2*%
%TO.N,+3V3*%
X156137500Y-110703125D03*
%TD*%
D13*
%TO.P,C7,1*%
%TO.N,Net-(U2-REGOUT)*%
X151500000Y-114637500D03*
%TO.P,C7,2*%
%TO.N,GND*%
X151500000Y-116362500D03*
%TD*%
D23*
%TO.N,IMU_SCK*%
X152500000Y-98500000D03*
%TO.N,IMU_MOSI*%
X150349998Y-99849998D03*
%TO.N,IMU_SCK*%
X150800003Y-106000000D03*
%TO.N,IMU_MOSI*%
X150000000Y-106000000D03*
%TO.N,+3V3*%
X152500000Y-101500000D03*
X151152290Y-97482060D03*
X154500000Y-110000000D03*
%TO.N,GND*%
X154275000Y-92862500D03*
X150000000Y-89000000D03*
X159000000Y-110703125D03*
X151500000Y-117214047D03*
%TO.N,+3V3*%
X150775000Y-93000000D03*
%TO.N,GND*%
X152775000Y-91000000D03*
%TO.N,+3V3*%
X151275000Y-89000000D03*
X149637500Y-91862500D03*
%TO.N,GND*%
X149275000Y-93000000D03*
X151671083Y-82116356D03*
%TO.N,+3V3*%
X154977812Y-88860278D03*
%TO.N,GND*%
X175500000Y-87960000D03*
%TD*%
D24*
%TO.N,IMU_MOSI*%
X150349998Y-99849998D02*
X150349998Y-99800059D01*
X150349998Y-99800059D02*
X152165000Y-97985057D01*
X152165000Y-97985057D02*
X152165000Y-95825000D01*
%TO.N,IMU_INT*%
X155146818Y-106000000D02*
X154572000Y-106000000D01*
X154572000Y-106000000D02*
X154201000Y-105629000D01*
X154201000Y-105629000D02*
X154201000Y-95861000D01*
X154201000Y-95861000D02*
X154165000Y-95825000D01*
%TO.N,+3V3*%
X150775000Y-93000000D02*
X149637500Y-91862500D01*
X149637500Y-91862500D02*
X149187500Y-91412500D01*
X149187500Y-91412500D02*
X147752500Y-91412500D01*
%TO.N,IMU_SCK*%
X152500000Y-98500000D02*
X152665000Y-98335000D01*
X152665000Y-98335000D02*
X152665000Y-95825000D01*
X150601000Y-106199003D02*
X150601000Y-106248943D01*
X150800003Y-106000000D02*
X150601000Y-106199003D01*
X150601000Y-106248943D02*
X150500000Y-106349943D01*
X150500000Y-106349943D02*
X150500000Y-107500000D01*
%TO.N,IMU_MOSI*%
X150000000Y-107500000D02*
X150000000Y-106000000D01*
%TO.N,IMU_CS*%
X150500000Y-102500000D02*
X150799000Y-102201000D01*
X150500000Y-102500000D02*
X151587500Y-102500000D01*
X150500000Y-111400000D02*
X150500000Y-111858824D01*
X150232824Y-112126000D02*
X149767176Y-112126000D01*
X150500000Y-111858824D02*
X150232824Y-112126000D01*
X149767176Y-112126000D02*
X148574000Y-110932824D01*
X148574000Y-110932824D02*
X148574000Y-104426000D01*
X148574000Y-104426000D02*
X150500000Y-102500000D01*
%TO.N,+3V3*%
X156137500Y-110703125D02*
X154500000Y-110703125D01*
X154500000Y-110000000D02*
X154500000Y-110703125D01*
%TO.N,IMU_MISO*%
X151000000Y-111400000D02*
X151000000Y-111925924D01*
X149601076Y-112527000D02*
X148173000Y-111098924D01*
X151000000Y-111925924D02*
X150398924Y-112527000D01*
X148173000Y-111098924D02*
X148173000Y-103827000D01*
X150398924Y-112527000D02*
X149601076Y-112527000D01*
X153165000Y-98835000D02*
X153165000Y-95825000D01*
X148173000Y-103827000D02*
X153165000Y-98835000D01*
%TO.N,IMU_CS*%
X153665000Y-99335000D02*
X153665000Y-95825000D01*
X150799000Y-102201000D02*
X153665000Y-99335000D01*
%TO.N,GND*%
X155359375Y-108200000D02*
X154000000Y-108200000D01*
X152000000Y-104137500D02*
X154000000Y-106137500D01*
X154000000Y-106137500D02*
X154000000Y-108200000D01*
%TO.N,Net-(U2-CPOUT)*%
X152000000Y-107500000D02*
X152000000Y-105862500D01*
%TO.N,+3V3*%
X151152290Y-97482060D02*
X151152290Y-95837710D01*
X151152290Y-95837710D02*
X151165000Y-95825000D01*
X154977812Y-88860278D02*
X155030034Y-88912500D01*
X155030034Y-88912500D02*
X156077500Y-88912500D01*
%TO.N,IMU_INT*%
X152579125Y-111479125D02*
X159073943Y-111479125D01*
X152500000Y-111400000D02*
X152579125Y-111479125D01*
X159601000Y-110952068D02*
X159601000Y-110454182D01*
X159601000Y-110454182D02*
X155146818Y-106000000D01*
X159073943Y-111479125D02*
X159601000Y-110952068D01*
%TO.N,GND*%
X152000000Y-111400000D02*
X152000000Y-113831866D01*
X152000000Y-113831866D02*
X152276000Y-114107866D01*
X152276000Y-114107866D02*
X152276000Y-115586500D01*
X152276000Y-115586500D02*
X151500000Y-116362500D01*
X157862500Y-110703125D02*
X155359375Y-108200000D01*
X154000000Y-108200000D02*
X153200000Y-108200000D01*
%TO.N,+3V3*%
X154500000Y-110703125D02*
X153203125Y-110703125D01*
X153203125Y-110703125D02*
X153200000Y-110700000D01*
%TO.N,GND*%
X159000000Y-110703125D02*
X157862500Y-110703125D01*
%TO.N,Net-(U2-REGOUT)*%
X151500000Y-114637500D02*
X151500000Y-111400000D01*
%TO.N,GND*%
X151500000Y-116362500D02*
X151500000Y-117214047D01*
%TO.N,+3V3*%
X169000000Y-89000000D02*
X168912500Y-88912500D01*
X168912500Y-88912500D02*
X156077500Y-88912500D01*
%TO.N,Net-(J1-RESET)*%
X169500000Y-82500000D02*
X169000000Y-82000000D01*
X169000000Y-82000000D02*
X153275000Y-82000000D01*
%TO.N,Net-(J1-SWDIO)*%
X170000000Y-82000000D02*
X169500000Y-81500000D01*
X169500000Y-81500000D02*
X150775000Y-81500000D01*
%TO.N,Net-(U1-PA31)*%
X171087500Y-95500000D02*
X170500000Y-94912500D01*
X170500000Y-81932900D02*
X169567100Y-81000000D01*
X170500000Y-94912500D02*
X170500000Y-81932900D01*
X150707900Y-81000000D02*
X150165000Y-81542900D01*
X169567100Y-81000000D02*
X150707900Y-81000000D01*
X150165000Y-81542900D02*
X150165000Y-87500000D01*
%TO.N,+3V3*%
X151275000Y-89000000D02*
X151165000Y-88890000D01*
X151165000Y-88890000D02*
X151165000Y-87500000D01*
%TO.N,Net-(J1-RESET)*%
X153242674Y-83077674D02*
X153165000Y-83000000D01*
X153266231Y-83077674D02*
X153242674Y-83077674D01*
X153165000Y-82110000D02*
X153165000Y-83000000D01*
%TO.N,Net-(U1-VDDCORE)*%
X151665000Y-85645046D02*
X151671083Y-85638963D01*
X151665000Y-87500000D02*
X151665000Y-85645046D01*
%TO.N,Net-(J1-RESET)*%
X153165000Y-83000000D02*
X153165000Y-87500000D01*
X153275000Y-82000000D02*
X153165000Y-82110000D01*
%TO.N,Net-(J1-SWDIO)*%
X150665000Y-81610000D02*
X150665000Y-87500000D01*
X150775000Y-81500000D02*
X150665000Y-81610000D01*
%TO.N,GND*%
X152165000Y-87500000D02*
X152165000Y-89332500D01*
X152165000Y-89332500D02*
X152245000Y-89412500D01*
X152687500Y-90912500D02*
X152775000Y-91000000D01*
X152775000Y-89412500D02*
X152245000Y-89412500D01*
X152775000Y-90000000D02*
X152775000Y-91000000D01*
X147752500Y-90912500D02*
X152687500Y-90912500D01*
X156077500Y-89412500D02*
X155212443Y-89412500D01*
X155212443Y-89412500D02*
X154624943Y-90000000D01*
X154624943Y-90000000D02*
X152775000Y-90000000D01*
X152775000Y-89412500D02*
X152775000Y-90000000D01*
%TO.N,+3V3*%
X156077500Y-84063943D02*
X156077500Y-88912500D01*
X155091231Y-83077674D02*
X156077500Y-84063943D01*
%TO.N,GND*%
X151671083Y-82116356D02*
X151671083Y-83913963D01*
%TO.N,+3V3*%
X151165000Y-93390000D02*
X151165000Y-95825000D01*
X150775000Y-93000000D02*
X151165000Y-93390000D01*
%TO.N,GND*%
X152775000Y-91000000D02*
X152775000Y-94000000D01*
X152718676Y-94000000D02*
X151665000Y-95053676D01*
X152775000Y-94000000D02*
X152718676Y-94000000D01*
X151665000Y-95053676D02*
X151665000Y-95825000D01*
%TO.N,+3V3*%
X169000000Y-97567100D02*
X169000000Y-89000000D01*
X171432900Y-100000000D02*
X169000000Y-97567100D01*
X177398958Y-100000000D02*
X171432900Y-100000000D01*
X175500000Y-90500000D02*
X177398958Y-92398958D01*
X177398958Y-92398958D02*
X177398958Y-100000000D01*
%TO.N,Net-(J1-RESET)*%
X176651000Y-99271000D02*
X171271000Y-99271000D01*
X176651000Y-94191000D02*
X176651000Y-99271000D01*
X171271000Y-99271000D02*
X169500000Y-97500000D01*
X175500000Y-93040000D02*
X176651000Y-94191000D01*
X169500000Y-97500000D02*
X169500000Y-82500000D01*
%TO.N,Net-(J1-SWCLK)*%
X175500000Y-95580000D02*
X172992500Y-95580000D01*
X172992500Y-95580000D02*
X172912500Y-95500000D01*
%TO.N,Net-(J1-SWDIO)*%
X174380000Y-97000000D02*
X170000000Y-97000000D01*
X170000000Y-97000000D02*
X170000000Y-82000000D01*
X175500000Y-98120000D02*
X174380000Y-97000000D01*
%TO.N,+3V3*%
X152500000Y-101500000D02*
X153412500Y-102412500D01*
X153412500Y-102412500D02*
X153412500Y-102500000D01*
%TD*%
M02*
