%TF.GenerationSoftware,KiCad,Pcbnew,9.0.6*%
%TF.CreationDate,2025-12-28T22:24:58-08:00*%
%TF.ProjectId,neodrone-v1,6e656f64-726f-46e6-952d-76312e6b6963,rev?*%
%TF.SameCoordinates,Original*%
%TF.FileFunction,Copper,L3,Inr*%
%TF.FilePolarity,Positive*%
%FSLAX46Y46*%
G04 Gerber Fmt 4.6, Leading zero omitted, Abs format (unit mm)*
G04 Created by KiCad (PCBNEW 9.0.6) date 2025-12-28 22:24:58*
%MOMM*%
%LPD*%
G01*
G04 APERTURE LIST*
%TA.AperFunction,ComponentPad*%
%ADD10C,1.700000*%
%TD*%
%TA.AperFunction,ComponentPad*%
%ADD11R,1.700000X1.700000*%
%TD*%
%TA.AperFunction,ViaPad*%
%ADD12C,0.600000*%
%TD*%
%TA.AperFunction,Conductor*%
%ADD13C,0.200000*%
%TD*%
G04 APERTURE END LIST*
D10*
%TO.N,GND*%
%TO.C,J1*%
X175500000Y-87960000D03*
%TO.N,+3V3*%
X175500000Y-90500000D03*
%TO.N,Net-(J1-RESET)*%
X175500000Y-93040000D03*
%TO.N,Net-(J1-SWCLK)*%
X175500000Y-95580000D03*
D11*
%TO.N,Net-(J1-SWDIO)*%
X175500000Y-98120000D03*
%TD*%
D12*
%TO.N,IMU_SCK*%
X152500000Y-98500000D03*
%TO.N,IMU_MOSI*%
X150349998Y-99849998D03*
%TO.N,IMU_SCK*%
X150800003Y-106000000D03*
%TO.N,IMU_MOSI*%
X150000000Y-106000000D03*
%TO.N,+3V3*%
X152500000Y-101500000D03*
X151152290Y-97482060D03*
X154500000Y-110000000D03*
%TO.N,GND*%
X154275000Y-92862500D03*
X150000000Y-89000000D03*
X159000000Y-110703125D03*
X151500000Y-117214047D03*
%TO.N,+3V3*%
X150775000Y-93000000D03*
%TO.N,GND*%
X152775000Y-91000000D03*
%TO.N,+3V3*%
X151275000Y-89000000D03*
X149637500Y-91862500D03*
%TO.N,GND*%
X149275000Y-93000000D03*
X151671083Y-82116356D03*
%TO.N,+3V3*%
X154977812Y-88860278D03*
%TO.N,GND*%
X175500000Y-87960000D03*
%TD*%
D13*
%TO.N,+3V3*%
X149275000Y-91000000D02*
X151275000Y-89000000D01*
X149637500Y-91862500D02*
X149275000Y-91500000D01*
X149275000Y-91500000D02*
X149275000Y-91000000D01*
X151275000Y-89000000D02*
X154838090Y-89000000D01*
X154838090Y-89000000D02*
X154977812Y-88860278D01*
X154500000Y-102649237D02*
X153425381Y-101574619D01*
X151168320Y-99317557D02*
X151168320Y-97498090D01*
X151168320Y-97498090D02*
X151152290Y-97482060D01*
X153425381Y-101574619D02*
X151168320Y-99317557D01*
X154500000Y-110000000D02*
X154500000Y-102649237D01*
X152500000Y-101500000D02*
X152574619Y-101574619D01*
X152574619Y-101574619D02*
X153425381Y-101574619D01*
%TD*%
M02*
