%TF.GenerationSoftware,KiCad,Pcbnew,9.0.6*%
%TF.CreationDate,2025-12-28T22:24:58-08:00*%
%TF.ProjectId,neodrone-v1,6e656f64-726f-46e6-952d-76312e6b6963,rev?*%
%TF.SameCoordinates,Original*%
%TF.FileFunction,Profile,NP*%
%FSLAX46Y46*%
G04 Gerber Fmt 4.6, Leading zero omitted, Abs format (unit mm)*
G04 Created by KiCad (PCBNEW 9.0.6) date 2025-12-28 22:24:58*
%MOMM*%
%LPD*%
G01*
G04 APERTURE LIST*
%TA.AperFunction,Profile*%
%ADD10C,0.200000*%
%TD*%
G04 APERTURE END LIST*
D10*
X163737902Y-120000000D02*
G75*
G02*
X165706128Y-120517748I0J-3999991D01*
G01*
X137262014Y-120000000D02*
X163737902Y-120000000D01*
X103337530Y-138579981D02*
X135293788Y-120517748D01*
X101351453Y-141459353D02*
G75*
G02*
X88499958Y-152499999I-12851494J1959352D01*
G01*
X96940787Y-127262662D02*
G75*
G02*
X93449593Y-127479138I-1968230J3482248D01*
G01*
X96940792Y-72737340D02*
X120968193Y-86318046D01*
X93449593Y-72520862D02*
G75*
G02*
X96940792Y-72737339I1522965J-3698738D01*
G01*
X163737901Y-80000000D02*
X137262098Y-80000000D01*
X165706173Y-79482227D02*
G75*
G02*
X163737901Y-79999972I-1968215J3482227D01*
G01*
X199648463Y-58540647D02*
G75*
G02*
X212499958Y-47500000I12851495J-1959353D01*
G01*
X180031728Y-113681957D02*
G75*
G02*
X177999958Y-110199708I1968227J3482249D01*
G01*
X204059129Y-127262663D02*
X180031728Y-113681957D01*
X207550323Y-127479138D02*
G75*
G02*
X204059129Y-127262663I-1522965J3698729D01*
G01*
X207550323Y-127479138D02*
G75*
G02*
X223970546Y-133382353I4949634J-12020863D01*
G01*
X165706128Y-120517748D02*
X197662387Y-138579981D01*
X120968189Y-113681957D02*
X96940787Y-127262663D01*
X77029370Y-66617647D02*
G75*
G02*
X101351453Y-58540647I11470588J6117647D01*
G01*
X93449593Y-72520862D02*
G75*
G02*
X77029369Y-66617647I-4949635J12020862D01*
G01*
X212499958Y-47500000D02*
G75*
G02*
X207550323Y-72520862I0J-13000000D01*
G01*
X135293788Y-120517748D02*
G75*
G02*
X137262014Y-120000000I1968226J-3482243D01*
G01*
X103337576Y-61420045D02*
G75*
G02*
X101351453Y-58540647I1968282J3482345D01*
G01*
X122999958Y-89800290D02*
X122999958Y-110199708D01*
X137262098Y-80000000D02*
G75*
G02*
X135293716Y-79482211I0J4000310D01*
G01*
X197662385Y-61420020D02*
X165706173Y-79482227D01*
X204059124Y-72737340D02*
G75*
G02*
X207550323Y-72520863I1968234J-3482260D01*
G01*
X122999958Y-110199708D02*
G75*
G02*
X120968189Y-113681957I-3999999J0D01*
G01*
X180031729Y-86318042D02*
X204059124Y-72737340D01*
X88499958Y-152500000D02*
G75*
G02*
X93449593Y-127479138I1J13000000D01*
G01*
X177999958Y-89800300D02*
G75*
G02*
X180031732Y-86318047I4000000J0D01*
G01*
X120968193Y-86318046D02*
G75*
G02*
X122999960Y-89800290I-1968225J-3482244D01*
G01*
X135293716Y-79482212D02*
X103337576Y-61420045D01*
X199648463Y-58540647D02*
G75*
G02*
X197662396Y-61420039I-3954305J602847D01*
G01*
X177999958Y-110199708D02*
X177999958Y-89800300D01*
X101351453Y-141459353D02*
G75*
G02*
X103337530Y-138579981I3954304J-602878D01*
G01*
X223970546Y-133382353D02*
G75*
G02*
X199648463Y-141459353I-11470588J-6117647D01*
G01*
X197662387Y-138579981D02*
G75*
G02*
X199648463Y-141459353I-1968230J-3482251D01*
G01*
M02*
