%TF.GenerationSoftware,KiCad,Pcbnew,9.0.6*%
%TF.CreationDate,2025-12-28T22:24:58-08:00*%
%TF.ProjectId,neodrone-v1,6e656f64-726f-46e6-952d-76312e6b6963,rev?*%
%TF.SameCoordinates,Original*%
%TF.FileFunction,Legend,Top*%
%TF.FilePolarity,Positive*%
%FSLAX46Y46*%
G04 Gerber Fmt 4.6, Leading zero omitted, Abs format (unit mm)*
G04 Created by KiCad (PCBNEW 9.0.6) date 2025-12-28 22:24:58*
%MOMM*%
%LPD*%
G01*
G04 APERTURE LIST*
%ADD10C,0.150000*%
%ADD11C,0.120000*%
G04 APERTURE END LIST*
D10*
X154608333Y-84954819D02*
X154275000Y-84478628D01*
X154036905Y-84954819D02*
X154036905Y-83954819D01*
X154036905Y-83954819D02*
X154417857Y-83954819D01*
X154417857Y-83954819D02*
X154513095Y-84002438D01*
X154513095Y-84002438D02*
X154560714Y-84050057D01*
X154560714Y-84050057D02*
X154608333Y-84145295D01*
X154608333Y-84145295D02*
X154608333Y-84288152D01*
X154608333Y-84288152D02*
X154560714Y-84383390D01*
X154560714Y-84383390D02*
X154513095Y-84431009D01*
X154513095Y-84431009D02*
X154417857Y-84478628D01*
X154417857Y-84478628D02*
X154036905Y-84478628D01*
X155560714Y-84954819D02*
X154989286Y-84954819D01*
X155275000Y-84954819D02*
X155275000Y-83954819D01*
X155275000Y-83954819D02*
X155179762Y-84097676D01*
X155179762Y-84097676D02*
X155084524Y-84192914D01*
X155084524Y-84192914D02*
X154989286Y-84240533D01*
X147013095Y-86454819D02*
X147013095Y-87264342D01*
X147013095Y-87264342D02*
X147060714Y-87359580D01*
X147060714Y-87359580D02*
X147108333Y-87407200D01*
X147108333Y-87407200D02*
X147203571Y-87454819D01*
X147203571Y-87454819D02*
X147394047Y-87454819D01*
X147394047Y-87454819D02*
X147489285Y-87407200D01*
X147489285Y-87407200D02*
X147536904Y-87359580D01*
X147536904Y-87359580D02*
X147584523Y-87264342D01*
X147584523Y-87264342D02*
X147584523Y-86454819D01*
X148584523Y-87454819D02*
X148013095Y-87454819D01*
X148298809Y-87454819D02*
X148298809Y-86454819D01*
X148298809Y-86454819D02*
X148203571Y-86597676D01*
X148203571Y-86597676D02*
X148108333Y-86692914D01*
X148108333Y-86692914D02*
X148013095Y-86740533D01*
X153108333Y-85859580D02*
X153060714Y-85907200D01*
X153060714Y-85907200D02*
X152917857Y-85954819D01*
X152917857Y-85954819D02*
X152822619Y-85954819D01*
X152822619Y-85954819D02*
X152679762Y-85907200D01*
X152679762Y-85907200D02*
X152584524Y-85811961D01*
X152584524Y-85811961D02*
X152536905Y-85716723D01*
X152536905Y-85716723D02*
X152489286Y-85526247D01*
X152489286Y-85526247D02*
X152489286Y-85383390D01*
X152489286Y-85383390D02*
X152536905Y-85192914D01*
X152536905Y-85192914D02*
X152584524Y-85097676D01*
X152584524Y-85097676D02*
X152679762Y-85002438D01*
X152679762Y-85002438D02*
X152822619Y-84954819D01*
X152822619Y-84954819D02*
X152917857Y-84954819D01*
X152917857Y-84954819D02*
X153060714Y-85002438D01*
X153060714Y-85002438D02*
X153108333Y-85050057D01*
X154060714Y-85954819D02*
X153489286Y-85954819D01*
X153775000Y-85954819D02*
X153775000Y-84954819D01*
X153775000Y-84954819D02*
X153679762Y-85097676D01*
X153679762Y-85097676D02*
X153584524Y-85192914D01*
X153584524Y-85192914D02*
X153489286Y-85240533D01*
X129670833Y-85404819D02*
X129194643Y-85404819D01*
X129194643Y-85404819D02*
X129194643Y-84404819D01*
X130527976Y-85404819D02*
X129956548Y-85404819D01*
X130242262Y-85404819D02*
X130242262Y-84404819D01*
X130242262Y-84404819D02*
X130147024Y-84547676D01*
X130147024Y-84547676D02*
X130051786Y-84642914D01*
X130051786Y-84642914D02*
X129956548Y-84690533D01*
X129544642Y-81959580D02*
X129497023Y-82007200D01*
X129497023Y-82007200D02*
X129354166Y-82054819D01*
X129354166Y-82054819D02*
X129258928Y-82054819D01*
X129258928Y-82054819D02*
X129116071Y-82007200D01*
X129116071Y-82007200D02*
X129020833Y-81911961D01*
X129020833Y-81911961D02*
X128973214Y-81816723D01*
X128973214Y-81816723D02*
X128925595Y-81626247D01*
X128925595Y-81626247D02*
X128925595Y-81483390D01*
X128925595Y-81483390D02*
X128973214Y-81292914D01*
X128973214Y-81292914D02*
X129020833Y-81197676D01*
X129020833Y-81197676D02*
X129116071Y-81102438D01*
X129116071Y-81102438D02*
X129258928Y-81054819D01*
X129258928Y-81054819D02*
X129354166Y-81054819D01*
X129354166Y-81054819D02*
X129497023Y-81102438D01*
X129497023Y-81102438D02*
X129544642Y-81150057D01*
X130497023Y-82054819D02*
X129925595Y-82054819D01*
X130211309Y-82054819D02*
X130211309Y-81054819D01*
X130211309Y-81054819D02*
X130116071Y-81197676D01*
X130116071Y-81197676D02*
X130020833Y-81292914D01*
X130020833Y-81292914D02*
X129925595Y-81340533D01*
X131354166Y-81054819D02*
X131163690Y-81054819D01*
X131163690Y-81054819D02*
X131068452Y-81102438D01*
X131068452Y-81102438D02*
X131020833Y-81150057D01*
X131020833Y-81150057D02*
X130925595Y-81292914D01*
X130925595Y-81292914D02*
X130877976Y-81483390D01*
X130877976Y-81483390D02*
X130877976Y-81864342D01*
X130877976Y-81864342D02*
X130925595Y-81959580D01*
X130925595Y-81959580D02*
X130973214Y-82007200D01*
X130973214Y-82007200D02*
X131068452Y-82054819D01*
X131068452Y-82054819D02*
X131258928Y-82054819D01*
X131258928Y-82054819D02*
X131354166Y-82007200D01*
X131354166Y-82007200D02*
X131401785Y-81959580D01*
X131401785Y-81959580D02*
X131449404Y-81864342D01*
X131449404Y-81864342D02*
X131449404Y-81626247D01*
X131449404Y-81626247D02*
X131401785Y-81531009D01*
X131401785Y-81531009D02*
X131354166Y-81483390D01*
X131354166Y-81483390D02*
X131258928Y-81435771D01*
X131258928Y-81435771D02*
X131068452Y-81435771D01*
X131068452Y-81435771D02*
X130973214Y-81483390D01*
X130973214Y-81483390D02*
X130925595Y-81531009D01*
X130925595Y-81531009D02*
X130877976Y-81626247D01*
X124364642Y-88649580D02*
X124317023Y-88697200D01*
X124317023Y-88697200D02*
X124174166Y-88744819D01*
X124174166Y-88744819D02*
X124078928Y-88744819D01*
X124078928Y-88744819D02*
X123936071Y-88697200D01*
X123936071Y-88697200D02*
X123840833Y-88601961D01*
X123840833Y-88601961D02*
X123793214Y-88506723D01*
X123793214Y-88506723D02*
X123745595Y-88316247D01*
X123745595Y-88316247D02*
X123745595Y-88173390D01*
X123745595Y-88173390D02*
X123793214Y-87982914D01*
X123793214Y-87982914D02*
X123840833Y-87887676D01*
X123840833Y-87887676D02*
X123936071Y-87792438D01*
X123936071Y-87792438D02*
X124078928Y-87744819D01*
X124078928Y-87744819D02*
X124174166Y-87744819D01*
X124174166Y-87744819D02*
X124317023Y-87792438D01*
X124317023Y-87792438D02*
X124364642Y-87840057D01*
X125317023Y-88744819D02*
X124745595Y-88744819D01*
X125031309Y-88744819D02*
X125031309Y-87744819D01*
X125031309Y-87744819D02*
X124936071Y-87887676D01*
X124936071Y-87887676D02*
X124840833Y-87982914D01*
X124840833Y-87982914D02*
X124745595Y-88030533D01*
X126221785Y-87744819D02*
X125745595Y-87744819D01*
X125745595Y-87744819D02*
X125697976Y-88221009D01*
X125697976Y-88221009D02*
X125745595Y-88173390D01*
X125745595Y-88173390D02*
X125840833Y-88125771D01*
X125840833Y-88125771D02*
X126078928Y-88125771D01*
X126078928Y-88125771D02*
X126174166Y-88173390D01*
X126174166Y-88173390D02*
X126221785Y-88221009D01*
X126221785Y-88221009D02*
X126269404Y-88316247D01*
X126269404Y-88316247D02*
X126269404Y-88554342D01*
X126269404Y-88554342D02*
X126221785Y-88649580D01*
X126221785Y-88649580D02*
X126174166Y-88697200D01*
X126174166Y-88697200D02*
X126078928Y-88744819D01*
X126078928Y-88744819D02*
X125840833Y-88744819D01*
X125840833Y-88744819D02*
X125745595Y-88697200D01*
X125745595Y-88697200D02*
X125697976Y-88649580D01*
X124364642Y-86139580D02*
X124317023Y-86187200D01*
X124317023Y-86187200D02*
X124174166Y-86234819D01*
X124174166Y-86234819D02*
X124078928Y-86234819D01*
X124078928Y-86234819D02*
X123936071Y-86187200D01*
X123936071Y-86187200D02*
X123840833Y-86091961D01*
X123840833Y-86091961D02*
X123793214Y-85996723D01*
X123793214Y-85996723D02*
X123745595Y-85806247D01*
X123745595Y-85806247D02*
X123745595Y-85663390D01*
X123745595Y-85663390D02*
X123793214Y-85472914D01*
X123793214Y-85472914D02*
X123840833Y-85377676D01*
X123840833Y-85377676D02*
X123936071Y-85282438D01*
X123936071Y-85282438D02*
X124078928Y-85234819D01*
X124078928Y-85234819D02*
X124174166Y-85234819D01*
X124174166Y-85234819D02*
X124317023Y-85282438D01*
X124317023Y-85282438D02*
X124364642Y-85330057D01*
X125317023Y-86234819D02*
X124745595Y-86234819D01*
X125031309Y-86234819D02*
X125031309Y-85234819D01*
X125031309Y-85234819D02*
X124936071Y-85377676D01*
X124936071Y-85377676D02*
X124840833Y-85472914D01*
X124840833Y-85472914D02*
X124745595Y-85520533D01*
X126174166Y-85568152D02*
X126174166Y-86234819D01*
X125936071Y-85187200D02*
X125697976Y-85901485D01*
X125697976Y-85901485D02*
X126317023Y-85901485D01*
X124364642Y-83629580D02*
X124317023Y-83677200D01*
X124317023Y-83677200D02*
X124174166Y-83724819D01*
X124174166Y-83724819D02*
X124078928Y-83724819D01*
X124078928Y-83724819D02*
X123936071Y-83677200D01*
X123936071Y-83677200D02*
X123840833Y-83581961D01*
X123840833Y-83581961D02*
X123793214Y-83486723D01*
X123793214Y-83486723D02*
X123745595Y-83296247D01*
X123745595Y-83296247D02*
X123745595Y-83153390D01*
X123745595Y-83153390D02*
X123793214Y-82962914D01*
X123793214Y-82962914D02*
X123840833Y-82867676D01*
X123840833Y-82867676D02*
X123936071Y-82772438D01*
X123936071Y-82772438D02*
X124078928Y-82724819D01*
X124078928Y-82724819D02*
X124174166Y-82724819D01*
X124174166Y-82724819D02*
X124317023Y-82772438D01*
X124317023Y-82772438D02*
X124364642Y-82820057D01*
X125317023Y-83724819D02*
X124745595Y-83724819D01*
X125031309Y-83724819D02*
X125031309Y-82724819D01*
X125031309Y-82724819D02*
X124936071Y-82867676D01*
X124936071Y-82867676D02*
X124840833Y-82962914D01*
X124840833Y-82962914D02*
X124745595Y-83010533D01*
X125650357Y-82724819D02*
X126269404Y-82724819D01*
X126269404Y-82724819D02*
X125936071Y-83105771D01*
X125936071Y-83105771D02*
X126078928Y-83105771D01*
X126078928Y-83105771D02*
X126174166Y-83153390D01*
X126174166Y-83153390D02*
X126221785Y-83201009D01*
X126221785Y-83201009D02*
X126269404Y-83296247D01*
X126269404Y-83296247D02*
X126269404Y-83534342D01*
X126269404Y-83534342D02*
X126221785Y-83629580D01*
X126221785Y-83629580D02*
X126174166Y-83677200D01*
X126174166Y-83677200D02*
X126078928Y-83724819D01*
X126078928Y-83724819D02*
X125793214Y-83724819D01*
X125793214Y-83724819D02*
X125697976Y-83677200D01*
X125697976Y-83677200D02*
X125650357Y-83629580D01*
X124364642Y-81119580D02*
X124317023Y-81167200D01*
X124317023Y-81167200D02*
X124174166Y-81214819D01*
X124174166Y-81214819D02*
X124078928Y-81214819D01*
X124078928Y-81214819D02*
X123936071Y-81167200D01*
X123936071Y-81167200D02*
X123840833Y-81071961D01*
X123840833Y-81071961D02*
X123793214Y-80976723D01*
X123793214Y-80976723D02*
X123745595Y-80786247D01*
X123745595Y-80786247D02*
X123745595Y-80643390D01*
X123745595Y-80643390D02*
X123793214Y-80452914D01*
X123793214Y-80452914D02*
X123840833Y-80357676D01*
X123840833Y-80357676D02*
X123936071Y-80262438D01*
X123936071Y-80262438D02*
X124078928Y-80214819D01*
X124078928Y-80214819D02*
X124174166Y-80214819D01*
X124174166Y-80214819D02*
X124317023Y-80262438D01*
X124317023Y-80262438D02*
X124364642Y-80310057D01*
X125317023Y-81214819D02*
X124745595Y-81214819D01*
X125031309Y-81214819D02*
X125031309Y-80214819D01*
X125031309Y-80214819D02*
X124936071Y-80357676D01*
X124936071Y-80357676D02*
X124840833Y-80452914D01*
X124840833Y-80452914D02*
X124745595Y-80500533D01*
X125697976Y-80310057D02*
X125745595Y-80262438D01*
X125745595Y-80262438D02*
X125840833Y-80214819D01*
X125840833Y-80214819D02*
X126078928Y-80214819D01*
X126078928Y-80214819D02*
X126174166Y-80262438D01*
X126174166Y-80262438D02*
X126221785Y-80310057D01*
X126221785Y-80310057D02*
X126269404Y-80405295D01*
X126269404Y-80405295D02*
X126269404Y-80500533D01*
X126269404Y-80500533D02*
X126221785Y-80643390D01*
X126221785Y-80643390D02*
X125650357Y-81214819D01*
X125650357Y-81214819D02*
X126269404Y-81214819D01*
X124364642Y-78609580D02*
X124317023Y-78657200D01*
X124317023Y-78657200D02*
X124174166Y-78704819D01*
X124174166Y-78704819D02*
X124078928Y-78704819D01*
X124078928Y-78704819D02*
X123936071Y-78657200D01*
X123936071Y-78657200D02*
X123840833Y-78561961D01*
X123840833Y-78561961D02*
X123793214Y-78466723D01*
X123793214Y-78466723D02*
X123745595Y-78276247D01*
X123745595Y-78276247D02*
X123745595Y-78133390D01*
X123745595Y-78133390D02*
X123793214Y-77942914D01*
X123793214Y-77942914D02*
X123840833Y-77847676D01*
X123840833Y-77847676D02*
X123936071Y-77752438D01*
X123936071Y-77752438D02*
X124078928Y-77704819D01*
X124078928Y-77704819D02*
X124174166Y-77704819D01*
X124174166Y-77704819D02*
X124317023Y-77752438D01*
X124317023Y-77752438D02*
X124364642Y-77800057D01*
X125317023Y-78704819D02*
X124745595Y-78704819D01*
X125031309Y-78704819D02*
X125031309Y-77704819D01*
X125031309Y-77704819D02*
X124936071Y-77847676D01*
X124936071Y-77847676D02*
X124840833Y-77942914D01*
X124840833Y-77942914D02*
X124745595Y-77990533D01*
X126269404Y-78704819D02*
X125697976Y-78704819D01*
X125983690Y-78704819D02*
X125983690Y-77704819D01*
X125983690Y-77704819D02*
X125888452Y-77847676D01*
X125888452Y-77847676D02*
X125793214Y-77942914D01*
X125793214Y-77942914D02*
X125697976Y-77990533D01*
X129544642Y-78609580D02*
X129497023Y-78657200D01*
X129497023Y-78657200D02*
X129354166Y-78704819D01*
X129354166Y-78704819D02*
X129258928Y-78704819D01*
X129258928Y-78704819D02*
X129116071Y-78657200D01*
X129116071Y-78657200D02*
X129020833Y-78561961D01*
X129020833Y-78561961D02*
X128973214Y-78466723D01*
X128973214Y-78466723D02*
X128925595Y-78276247D01*
X128925595Y-78276247D02*
X128925595Y-78133390D01*
X128925595Y-78133390D02*
X128973214Y-77942914D01*
X128973214Y-77942914D02*
X129020833Y-77847676D01*
X129020833Y-77847676D02*
X129116071Y-77752438D01*
X129116071Y-77752438D02*
X129258928Y-77704819D01*
X129258928Y-77704819D02*
X129354166Y-77704819D01*
X129354166Y-77704819D02*
X129497023Y-77752438D01*
X129497023Y-77752438D02*
X129544642Y-77800057D01*
X130497023Y-78704819D02*
X129925595Y-78704819D01*
X130211309Y-78704819D02*
X130211309Y-77704819D01*
X130211309Y-77704819D02*
X130116071Y-77847676D01*
X130116071Y-77847676D02*
X130020833Y-77942914D01*
X130020833Y-77942914D02*
X129925595Y-77990533D01*
X131116071Y-77704819D02*
X131211309Y-77704819D01*
X131211309Y-77704819D02*
X131306547Y-77752438D01*
X131306547Y-77752438D02*
X131354166Y-77800057D01*
X131354166Y-77800057D02*
X131401785Y-77895295D01*
X131401785Y-77895295D02*
X131449404Y-78085771D01*
X131449404Y-78085771D02*
X131449404Y-78323866D01*
X131449404Y-78323866D02*
X131401785Y-78514342D01*
X131401785Y-78514342D02*
X131354166Y-78609580D01*
X131354166Y-78609580D02*
X131306547Y-78657200D01*
X131306547Y-78657200D02*
X131211309Y-78704819D01*
X131211309Y-78704819D02*
X131116071Y-78704819D01*
X131116071Y-78704819D02*
X131020833Y-78657200D01*
X131020833Y-78657200D02*
X130973214Y-78609580D01*
X130973214Y-78609580D02*
X130925595Y-78514342D01*
X130925595Y-78514342D02*
X130877976Y-78323866D01*
X130877976Y-78323866D02*
X130877976Y-78085771D01*
X130877976Y-78085771D02*
X130925595Y-77895295D01*
X130925595Y-77895295D02*
X130973214Y-77800057D01*
X130973214Y-77800057D02*
X131020833Y-77752438D01*
X131020833Y-77752438D02*
X131116071Y-77704819D01*
X175166666Y-99954819D02*
X175166666Y-100669104D01*
X175166666Y-100669104D02*
X175119047Y-100811961D01*
X175119047Y-100811961D02*
X175023809Y-100907200D01*
X175023809Y-100907200D02*
X174880952Y-100954819D01*
X174880952Y-100954819D02*
X174785714Y-100954819D01*
X176166666Y-100954819D02*
X175595238Y-100954819D01*
X175880952Y-100954819D02*
X175880952Y-99954819D01*
X175880952Y-99954819D02*
X175785714Y-100097676D01*
X175785714Y-100097676D02*
X175690476Y-100192914D01*
X175690476Y-100192914D02*
X175595238Y-100240533D01*
X171833333Y-97384819D02*
X171500000Y-96908628D01*
X171261905Y-97384819D02*
X171261905Y-96384819D01*
X171261905Y-96384819D02*
X171642857Y-96384819D01*
X171642857Y-96384819D02*
X171738095Y-96432438D01*
X171738095Y-96432438D02*
X171785714Y-96480057D01*
X171785714Y-96480057D02*
X171833333Y-96575295D01*
X171833333Y-96575295D02*
X171833333Y-96718152D01*
X171833333Y-96718152D02*
X171785714Y-96813390D01*
X171785714Y-96813390D02*
X171738095Y-96861009D01*
X171738095Y-96861009D02*
X171642857Y-96908628D01*
X171642857Y-96908628D02*
X171261905Y-96908628D01*
X172214286Y-96480057D02*
X172261905Y-96432438D01*
X172261905Y-96432438D02*
X172357143Y-96384819D01*
X172357143Y-96384819D02*
X172595238Y-96384819D01*
X172595238Y-96384819D02*
X172690476Y-96432438D01*
X172690476Y-96432438D02*
X172738095Y-96480057D01*
X172738095Y-96480057D02*
X172785714Y-96575295D01*
X172785714Y-96575295D02*
X172785714Y-96670533D01*
X172785714Y-96670533D02*
X172738095Y-96813390D01*
X172738095Y-96813390D02*
X172166667Y-97384819D01*
X172166667Y-97384819D02*
X172785714Y-97384819D01*
X146738095Y-112454819D02*
X146738095Y-113264342D01*
X146738095Y-113264342D02*
X146785714Y-113359580D01*
X146785714Y-113359580D02*
X146833333Y-113407200D01*
X146833333Y-113407200D02*
X146928571Y-113454819D01*
X146928571Y-113454819D02*
X147119047Y-113454819D01*
X147119047Y-113454819D02*
X147214285Y-113407200D01*
X147214285Y-113407200D02*
X147261904Y-113359580D01*
X147261904Y-113359580D02*
X147309523Y-113264342D01*
X147309523Y-113264342D02*
X147309523Y-112454819D01*
X147738095Y-112550057D02*
X147785714Y-112502438D01*
X147785714Y-112502438D02*
X147880952Y-112454819D01*
X147880952Y-112454819D02*
X148119047Y-112454819D01*
X148119047Y-112454819D02*
X148214285Y-112502438D01*
X148214285Y-112502438D02*
X148261904Y-112550057D01*
X148261904Y-112550057D02*
X148309523Y-112645295D01*
X148309523Y-112645295D02*
X148309523Y-112740533D01*
X148309523Y-112740533D02*
X148261904Y-112883390D01*
X148261904Y-112883390D02*
X147690476Y-113454819D01*
X147690476Y-113454819D02*
X148309523Y-113454819D01*
X152333333Y-101454819D02*
X152000000Y-100978628D01*
X151761905Y-101454819D02*
X151761905Y-100454819D01*
X151761905Y-100454819D02*
X152142857Y-100454819D01*
X152142857Y-100454819D02*
X152238095Y-100502438D01*
X152238095Y-100502438D02*
X152285714Y-100550057D01*
X152285714Y-100550057D02*
X152333333Y-100645295D01*
X152333333Y-100645295D02*
X152333333Y-100788152D01*
X152333333Y-100788152D02*
X152285714Y-100883390D01*
X152285714Y-100883390D02*
X152238095Y-100931009D01*
X152238095Y-100931009D02*
X152142857Y-100978628D01*
X152142857Y-100978628D02*
X151761905Y-100978628D01*
X152666667Y-100454819D02*
X153285714Y-100454819D01*
X153285714Y-100454819D02*
X152952381Y-100835771D01*
X152952381Y-100835771D02*
X153095238Y-100835771D01*
X153095238Y-100835771D02*
X153190476Y-100883390D01*
X153190476Y-100883390D02*
X153238095Y-100931009D01*
X153238095Y-100931009D02*
X153285714Y-101026247D01*
X153285714Y-101026247D02*
X153285714Y-101264342D01*
X153285714Y-101264342D02*
X153238095Y-101359580D01*
X153238095Y-101359580D02*
X153190476Y-101407200D01*
X153190476Y-101407200D02*
X153095238Y-101454819D01*
X153095238Y-101454819D02*
X152809524Y-101454819D01*
X152809524Y-101454819D02*
X152714286Y-101407200D01*
X152714286Y-101407200D02*
X152666667Y-101359580D01*
X153859580Y-105166666D02*
X153907200Y-105214285D01*
X153907200Y-105214285D02*
X153954819Y-105357142D01*
X153954819Y-105357142D02*
X153954819Y-105452380D01*
X153954819Y-105452380D02*
X153907200Y-105595237D01*
X153907200Y-105595237D02*
X153811961Y-105690475D01*
X153811961Y-105690475D02*
X153716723Y-105738094D01*
X153716723Y-105738094D02*
X153526247Y-105785713D01*
X153526247Y-105785713D02*
X153383390Y-105785713D01*
X153383390Y-105785713D02*
X153192914Y-105738094D01*
X153192914Y-105738094D02*
X153097676Y-105690475D01*
X153097676Y-105690475D02*
X153002438Y-105595237D01*
X153002438Y-105595237D02*
X152954819Y-105452380D01*
X152954819Y-105452380D02*
X152954819Y-105357142D01*
X152954819Y-105357142D02*
X153002438Y-105214285D01*
X153002438Y-105214285D02*
X153050057Y-105166666D01*
X153954819Y-104690475D02*
X153954819Y-104499999D01*
X153954819Y-104499999D02*
X153907200Y-104404761D01*
X153907200Y-104404761D02*
X153859580Y-104357142D01*
X153859580Y-104357142D02*
X153716723Y-104261904D01*
X153716723Y-104261904D02*
X153526247Y-104214285D01*
X153526247Y-104214285D02*
X153145295Y-104214285D01*
X153145295Y-104214285D02*
X153050057Y-104261904D01*
X153050057Y-104261904D02*
X153002438Y-104309523D01*
X153002438Y-104309523D02*
X152954819Y-104404761D01*
X152954819Y-104404761D02*
X152954819Y-104595237D01*
X152954819Y-104595237D02*
X153002438Y-104690475D01*
X153002438Y-104690475D02*
X153050057Y-104738094D01*
X153050057Y-104738094D02*
X153145295Y-104785713D01*
X153145295Y-104785713D02*
X153383390Y-104785713D01*
X153383390Y-104785713D02*
X153478628Y-104738094D01*
X153478628Y-104738094D02*
X153526247Y-104690475D01*
X153526247Y-104690475D02*
X153573866Y-104595237D01*
X153573866Y-104595237D02*
X153573866Y-104404761D01*
X153573866Y-104404761D02*
X153526247Y-104309523D01*
X153526247Y-104309523D02*
X153478628Y-104261904D01*
X153478628Y-104261904D02*
X153383390Y-104214285D01*
X156833333Y-112492705D02*
X156785714Y-112540325D01*
X156785714Y-112540325D02*
X156642857Y-112587944D01*
X156642857Y-112587944D02*
X156547619Y-112587944D01*
X156547619Y-112587944D02*
X156404762Y-112540325D01*
X156404762Y-112540325D02*
X156309524Y-112445086D01*
X156309524Y-112445086D02*
X156261905Y-112349848D01*
X156261905Y-112349848D02*
X156214286Y-112159372D01*
X156214286Y-112159372D02*
X156214286Y-112016515D01*
X156214286Y-112016515D02*
X156261905Y-111826039D01*
X156261905Y-111826039D02*
X156309524Y-111730801D01*
X156309524Y-111730801D02*
X156404762Y-111635563D01*
X156404762Y-111635563D02*
X156547619Y-111587944D01*
X156547619Y-111587944D02*
X156642857Y-111587944D01*
X156642857Y-111587944D02*
X156785714Y-111635563D01*
X156785714Y-111635563D02*
X156833333Y-111683182D01*
X157404762Y-112016515D02*
X157309524Y-111968896D01*
X157309524Y-111968896D02*
X157261905Y-111921277D01*
X157261905Y-111921277D02*
X157214286Y-111826039D01*
X157214286Y-111826039D02*
X157214286Y-111778420D01*
X157214286Y-111778420D02*
X157261905Y-111683182D01*
X157261905Y-111683182D02*
X157309524Y-111635563D01*
X157309524Y-111635563D02*
X157404762Y-111587944D01*
X157404762Y-111587944D02*
X157595238Y-111587944D01*
X157595238Y-111587944D02*
X157690476Y-111635563D01*
X157690476Y-111635563D02*
X157738095Y-111683182D01*
X157738095Y-111683182D02*
X157785714Y-111778420D01*
X157785714Y-111778420D02*
X157785714Y-111826039D01*
X157785714Y-111826039D02*
X157738095Y-111921277D01*
X157738095Y-111921277D02*
X157690476Y-111968896D01*
X157690476Y-111968896D02*
X157595238Y-112016515D01*
X157595238Y-112016515D02*
X157404762Y-112016515D01*
X157404762Y-112016515D02*
X157309524Y-112064134D01*
X157309524Y-112064134D02*
X157261905Y-112111753D01*
X157261905Y-112111753D02*
X157214286Y-112206991D01*
X157214286Y-112206991D02*
X157214286Y-112397467D01*
X157214286Y-112397467D02*
X157261905Y-112492705D01*
X157261905Y-112492705D02*
X157309524Y-112540325D01*
X157309524Y-112540325D02*
X157404762Y-112587944D01*
X157404762Y-112587944D02*
X157595238Y-112587944D01*
X157595238Y-112587944D02*
X157690476Y-112540325D01*
X157690476Y-112540325D02*
X157738095Y-112492705D01*
X157738095Y-112492705D02*
X157785714Y-112397467D01*
X157785714Y-112397467D02*
X157785714Y-112206991D01*
X157785714Y-112206991D02*
X157738095Y-112111753D01*
X157738095Y-112111753D02*
X157690476Y-112064134D01*
X157690476Y-112064134D02*
X157595238Y-112016515D01*
X153333333Y-116573627D02*
X153285714Y-116621247D01*
X153285714Y-116621247D02*
X153142857Y-116668866D01*
X153142857Y-116668866D02*
X153047619Y-116668866D01*
X153047619Y-116668866D02*
X152904762Y-116621247D01*
X152904762Y-116621247D02*
X152809524Y-116526008D01*
X152809524Y-116526008D02*
X152761905Y-116430770D01*
X152761905Y-116430770D02*
X152714286Y-116240294D01*
X152714286Y-116240294D02*
X152714286Y-116097437D01*
X152714286Y-116097437D02*
X152761905Y-115906961D01*
X152761905Y-115906961D02*
X152809524Y-115811723D01*
X152809524Y-115811723D02*
X152904762Y-115716485D01*
X152904762Y-115716485D02*
X153047619Y-115668866D01*
X153047619Y-115668866D02*
X153142857Y-115668866D01*
X153142857Y-115668866D02*
X153285714Y-115716485D01*
X153285714Y-115716485D02*
X153333333Y-115764104D01*
X153666667Y-115668866D02*
X154333333Y-115668866D01*
X154333333Y-115668866D02*
X153904762Y-116668866D01*
D11*
%TO.C,R1*%
X154433455Y-82555174D02*
X153924007Y-82555174D01*
X154433455Y-83600174D02*
X153924007Y-83600174D01*
%TO.C,U1*%
X148305000Y-88052500D02*
X148755000Y-88052500D01*
X148305000Y-88502500D02*
X148305000Y-88052500D01*
X148305000Y-95272500D02*
X148305000Y-94822500D01*
X148755000Y-95272500D02*
X148305000Y-95272500D01*
X155075000Y-88052500D02*
X155525000Y-88052500D01*
X155525000Y-88052500D02*
X155525000Y-88502500D01*
X155525000Y-94822500D02*
X155525000Y-95272500D01*
X155525000Y-95272500D02*
X155075000Y-95272500D01*
X147665000Y-88502500D02*
X147325000Y-88032500D01*
X148005000Y-88032500D01*
X147665000Y-88502500D01*
G36*
X147665000Y-88502500D02*
G01*
X147325000Y-88032500D01*
X148005000Y-88032500D01*
X147665000Y-88502500D01*
G37*
%TO.C,C1*%
X151161083Y-84630196D02*
X151161083Y-84922730D01*
X152181083Y-84630196D02*
X152181083Y-84922730D01*
%TO.C,L1*%
X129576248Y-85890000D02*
X130098752Y-85890000D01*
X129576248Y-88110000D02*
X130098752Y-88110000D01*
%TO.C,C16*%
X129476248Y-82540000D02*
X130898752Y-82540000D01*
X129476248Y-84360000D02*
X130898752Y-84360000D01*
%TO.C,C15*%
X124861233Y-89210000D02*
X125153767Y-89210000D01*
X124861233Y-90230000D02*
X125153767Y-90230000D01*
%TO.C,C14*%
X124861233Y-86700000D02*
X125153767Y-86700000D01*
X124861233Y-87720000D02*
X125153767Y-87720000D01*
%TO.C,C13*%
X124861233Y-84190000D02*
X125153767Y-84190000D01*
X124861233Y-85210000D02*
X125153767Y-85210000D01*
%TO.C,C12*%
X124861233Y-81680000D02*
X125153767Y-81680000D01*
X124861233Y-82700000D02*
X125153767Y-82700000D01*
%TO.C,C11*%
X124861233Y-79170000D02*
X125153767Y-79170000D01*
X124861233Y-80190000D02*
X125153767Y-80190000D01*
%TO.C,C10*%
X129476248Y-79190000D02*
X130898752Y-79190000D01*
X129476248Y-81010000D02*
X130898752Y-81010000D01*
%TO.C,J1*%
X174120000Y-96850000D02*
X174120000Y-86580000D01*
X176880000Y-86580000D02*
X174120000Y-86580000D01*
X176880000Y-96850000D02*
X174120000Y-96850000D01*
X176880000Y-96850000D02*
X176880000Y-86580000D01*
X176880000Y-98120000D02*
X176880000Y-99500000D01*
X176880000Y-99500000D02*
X175500000Y-99500000D01*
%TO.C,R2*%
X172254724Y-94977500D02*
X171745276Y-94977500D01*
X172254724Y-96022500D02*
X171745276Y-96022500D01*
%TO.C,U2*%
X149100000Y-107765000D02*
X149100000Y-107540000D01*
X149100000Y-111600000D02*
X149100000Y-111075000D01*
X149100000Y-111600000D02*
X149625000Y-111600000D01*
X149625000Y-107300000D02*
X149400000Y-107300000D01*
X153400000Y-107300000D02*
X152875000Y-107300000D01*
X153400000Y-107300000D02*
X153400000Y-107825000D01*
X153400000Y-111600000D02*
X152875000Y-111600000D01*
X153400000Y-111600000D02*
X153400000Y-111075000D01*
X149100000Y-107300000D02*
X148860000Y-106970000D01*
X149340000Y-106970000D01*
X149100000Y-107300000D01*
G36*
X149100000Y-107300000D02*
G01*
X148860000Y-106970000D01*
X149340000Y-106970000D01*
X149100000Y-107300000D01*
G37*
%TO.C,R3*%
X152754724Y-103022500D02*
X152245276Y-103022500D01*
X152754724Y-101977500D02*
X152245276Y-101977500D01*
%TO.C,C9*%
X151490000Y-105146267D02*
X151490000Y-104853733D01*
X152510000Y-105146267D02*
X152510000Y-104853733D01*
%TO.C,C8*%
X157146267Y-111213125D02*
X156853733Y-111213125D01*
X157146267Y-110193125D02*
X156853733Y-110193125D01*
%TO.C,C7*%
X152010000Y-115353733D02*
X152010000Y-115646267D01*
X150990000Y-115353733D02*
X150990000Y-115646267D01*
%TD*%
M02*
