%TF.GenerationSoftware,KiCad,Pcbnew,9.0.6*%
%TF.CreationDate,2025-12-28T22:24:58-08:00*%
%TF.ProjectId,neodrone-v1,6e656f64-726f-46e6-952d-76312e6b6963,rev?*%
%TF.SameCoordinates,Original*%
%TF.FileFunction,Copper,L2,Inr*%
%TF.FilePolarity,Positive*%
%FSLAX46Y46*%
G04 Gerber Fmt 4.6, Leading zero omitted, Abs format (unit mm)*
G04 Created by KiCad (PCBNEW 9.0.6) date 2025-12-28 22:24:58*
%MOMM*%
%LPD*%
G01*
G04 APERTURE LIST*
%TA.AperFunction,ComponentPad*%
%ADD10C,1.700000*%
%TD*%
%TA.AperFunction,ComponentPad*%
%ADD11R,1.700000X1.700000*%
%TD*%
%TA.AperFunction,ViaPad*%
%ADD12C,0.600000*%
%TD*%
G04 APERTURE END LIST*
D10*
%TO.N,GND*%
%TO.C,J1*%
X175500000Y-87960000D03*
%TO.N,+3V3*%
X175500000Y-90500000D03*
%TO.N,Net-(J1-RESET)*%
X175500000Y-93040000D03*
%TO.N,Net-(J1-SWCLK)*%
X175500000Y-95580000D03*
D11*
%TO.N,Net-(J1-SWDIO)*%
X175500000Y-98120000D03*
%TD*%
D12*
%TO.N,IMU_SCK*%
X152500000Y-98500000D03*
%TO.N,IMU_MOSI*%
X150349998Y-99849998D03*
%TO.N,IMU_SCK*%
X150800003Y-106000000D03*
%TO.N,IMU_MOSI*%
X150000000Y-106000000D03*
%TO.N,+3V3*%
X152500000Y-101500000D03*
X151152290Y-97482060D03*
X154500000Y-110000000D03*
%TO.N,GND*%
X154275000Y-92862500D03*
X150000000Y-89000000D03*
X159000000Y-110703125D03*
X151500000Y-117214047D03*
%TO.N,+3V3*%
X150775000Y-93000000D03*
%TO.N,GND*%
X152775000Y-91000000D03*
%TO.N,+3V3*%
X151275000Y-89000000D03*
X149637500Y-91862500D03*
%TO.N,GND*%
X149275000Y-93000000D03*
X151671083Y-82116356D03*
%TO.N,+3V3*%
X154977812Y-88860278D03*
%TO.N,GND*%
X175500000Y-87960000D03*
%TD*%
%TA.AperFunction,Conductor*%
%TO.N,GND*%
G36*
X212502632Y-48000574D02*
G01*
X213196918Y-48020043D01*
X213203840Y-48020431D01*
X213895169Y-48078709D01*
X213902073Y-48079486D01*
X214589034Y-48176410D01*
X214595882Y-48177573D01*
X215276342Y-48312843D01*
X215283084Y-48314381D01*
X215954912Y-48487573D01*
X215961546Y-48489483D01*
X216622622Y-48700053D01*
X216629164Y-48702341D01*
X217277366Y-48949612D01*
X217283765Y-48952260D01*
X217917125Y-49235480D01*
X217923369Y-49238485D01*
X218539820Y-49556730D01*
X218545901Y-49560088D01*
X219132073Y-49905612D01*
X219143576Y-49912392D01*
X219149462Y-49916089D01*
X219726428Y-50301312D01*
X219732081Y-50305319D01*
X220286575Y-50722285D01*
X220292007Y-50726613D01*
X220557137Y-50950306D01*
X220822262Y-51173995D01*
X220827447Y-51178625D01*
X220881177Y-51229376D01*
X221141353Y-51475130D01*
X221331780Y-51655000D01*
X221336692Y-51659907D01*
X221589263Y-51926801D01*
X221813561Y-52163819D01*
X221818195Y-52169000D01*
X221861458Y-52220180D01*
X222266061Y-52698825D01*
X222270381Y-52704235D01*
X222413937Y-52894769D01*
X222687864Y-53258338D01*
X222691890Y-53264005D01*
X223077661Y-53840622D01*
X223081363Y-53846506D01*
X223434216Y-54443835D01*
X223437581Y-54449915D01*
X223627132Y-54816243D01*
X223756404Y-55066073D01*
X223759407Y-55072298D01*
X224043221Y-55705397D01*
X224045878Y-55711800D01*
X224293751Y-56359764D01*
X224296052Y-56366323D01*
X224507233Y-57027179D01*
X224509162Y-57033858D01*
X224682966Y-57705466D01*
X224684519Y-57712241D01*
X224820423Y-58392570D01*
X224821593Y-58399423D01*
X224919158Y-59086289D01*
X224919942Y-59093195D01*
X224978864Y-59784444D01*
X224979260Y-59791385D01*
X224999354Y-60484859D01*
X224999360Y-60491810D01*
X224980562Y-61185302D01*
X224980179Y-61192243D01*
X224922549Y-61883599D01*
X224921778Y-61890507D01*
X224825496Y-62577553D01*
X224824339Y-62584408D01*
X224689706Y-63264987D01*
X224688166Y-63271765D01*
X224515613Y-63943712D01*
X224513696Y-63950394D01*
X224303758Y-64611618D01*
X224301470Y-64618182D01*
X224054802Y-65266624D01*
X224052149Y-65273049D01*
X223769539Y-65906630D01*
X223766530Y-65912897D01*
X223448867Y-66529634D01*
X223445513Y-66535722D01*
X223093769Y-67133724D01*
X223090078Y-67139614D01*
X222705388Y-67716946D01*
X222701372Y-67722621D01*
X222284942Y-68277480D01*
X222280616Y-68282920D01*
X221833738Y-68813582D01*
X221829113Y-68818772D01*
X221353192Y-69323568D01*
X221348283Y-69328490D01*
X220844841Y-69805806D01*
X220839665Y-69810446D01*
X220310251Y-70258813D01*
X220304822Y-70263154D01*
X219751142Y-70681130D01*
X219745479Y-70685162D01*
X219169210Y-71071479D01*
X219163330Y-71075186D01*
X218566336Y-71428593D01*
X218560257Y-71431965D01*
X217944398Y-71751362D01*
X217938140Y-71754388D01*
X217305354Y-72038771D01*
X217298936Y-72041442D01*
X216651188Y-72289926D01*
X216644631Y-72292232D01*
X215984004Y-72504020D01*
X215977327Y-72505956D01*
X215305865Y-72680392D01*
X215299091Y-72681951D01*
X214618885Y-72818491D01*
X214612034Y-72819667D01*
X213925275Y-72917872D01*
X213918369Y-72918663D01*
X213227178Y-72978229D01*
X213220238Y-72978632D01*
X212526782Y-72999374D01*
X212519831Y-72999387D01*
X211826302Y-72981236D01*
X211819361Y-72980859D01*
X211127954Y-72923875D01*
X211121045Y-72923110D01*
X210433914Y-72827470D01*
X210427058Y-72826319D01*
X209746367Y-72692325D01*
X209739587Y-72690792D01*
X209067461Y-72518861D01*
X209060787Y-72516952D01*
X208399361Y-72307631D01*
X208392796Y-72305349D01*
X207743674Y-72059116D01*
X207740420Y-72057829D01*
X207569610Y-71987460D01*
X207216576Y-71875031D01*
X207021827Y-71830246D01*
X206855497Y-71791996D01*
X206488816Y-71738917D01*
X206488812Y-71738916D01*
X206265132Y-71725148D01*
X206119014Y-71716154D01*
X206119008Y-71716154D01*
X206119006Y-71716154D01*
X205748600Y-71723858D01*
X205748597Y-71723858D01*
X205524258Y-71747064D01*
X205380056Y-71761981D01*
X205380051Y-71761981D01*
X205380041Y-71761983D01*
X205015915Y-71830258D01*
X205015902Y-71830261D01*
X204658574Y-71928243D01*
X204310550Y-72055245D01*
X203974107Y-72210433D01*
X203974087Y-72210444D01*
X203815513Y-72300116D01*
X203815491Y-72300129D01*
X179842815Y-85849903D01*
X179842814Y-85849904D01*
X179842807Y-85849908D01*
X179829007Y-85857707D01*
X179828981Y-85857712D01*
X179828984Y-85857717D01*
X179612867Y-85979805D01*
X179612848Y-85979817D01*
X179286231Y-86204463D01*
X179286227Y-86204466D01*
X178980603Y-86456975D01*
X178980602Y-86456975D01*
X178698375Y-86735358D01*
X178441704Y-87037490D01*
X178441703Y-87037491D01*
X178212597Y-87361004D01*
X178012808Y-87703424D01*
X177843905Y-88062065D01*
X177843895Y-88062089D01*
X177707175Y-88434195D01*
X177603699Y-88816873D01*
X177603699Y-88816875D01*
X177534265Y-89207173D01*
X177534263Y-89207194D01*
X177531416Y-89239450D01*
X177499413Y-89602078D01*
X177499412Y-89602088D01*
X177499411Y-89602099D01*
X177499458Y-89800289D01*
X177499458Y-110265602D01*
X177499427Y-110397909D01*
X177499427Y-110397918D01*
X177534281Y-110792823D01*
X177603717Y-111183133D01*
X177707192Y-111565804D01*
X177843911Y-111937908D01*
X177843921Y-111937932D01*
X178012821Y-112296566D01*
X178212612Y-112638989D01*
X178441717Y-112962500D01*
X178441718Y-112962501D01*
X178698388Y-113264631D01*
X178980613Y-113543013D01*
X178980617Y-113543016D01*
X178980621Y-113543020D01*
X179286237Y-113795521D01*
X179612868Y-114020177D01*
X179612890Y-114020189D01*
X179612891Y-114020190D01*
X179785450Y-114117673D01*
X179785448Y-114117675D01*
X179785470Y-114117683D01*
X179842812Y-114150095D01*
X179842815Y-114150095D01*
X179856776Y-114157986D01*
X203755488Y-127665955D01*
X203755487Y-127665955D01*
X203755490Y-127665956D01*
X203812792Y-127698346D01*
X203812793Y-127698346D01*
X203877380Y-127734851D01*
X203877668Y-127734989D01*
X203974121Y-127789533D01*
X203974125Y-127789535D01*
X203974131Y-127789538D01*
X204086133Y-127841200D01*
X204310554Y-127944717D01*
X204310560Y-127944719D01*
X204310564Y-127944721D01*
X204658590Y-128071723D01*
X204658598Y-128071725D01*
X204658603Y-128071727D01*
X205015912Y-128169704D01*
X205015920Y-128169705D01*
X205015922Y-128169706D01*
X205015965Y-128169714D01*
X205380065Y-128237984D01*
X205748597Y-128276105D01*
X206119016Y-128283810D01*
X206488815Y-128261047D01*
X206855492Y-128207968D01*
X206855502Y-128207965D01*
X206855506Y-128207965D01*
X206935584Y-128189549D01*
X207216566Y-128124935D01*
X207569595Y-128012507D01*
X207739350Y-127942572D01*
X207742467Y-127941338D01*
X208374355Y-127701075D01*
X208380731Y-127698848D01*
X209023206Y-127493858D01*
X209029682Y-127491986D01*
X209682345Y-127322303D01*
X209688874Y-127320794D01*
X210349887Y-127186898D01*
X210356470Y-127185751D01*
X211023778Y-127088064D01*
X211030375Y-127087280D01*
X211702058Y-127026082D01*
X211708729Y-127025658D01*
X212382658Y-127001140D01*
X212389403Y-127001079D01*
X213063696Y-127013308D01*
X213070383Y-127013612D01*
X213743011Y-127062553D01*
X213749673Y-127063220D01*
X214418635Y-127148726D01*
X214425263Y-127149758D01*
X215014019Y-127257885D01*
X215088540Y-127271571D01*
X215095150Y-127272972D01*
X215122929Y-127279656D01*
X215750818Y-127430734D01*
X215757283Y-127432477D01*
X216315308Y-127599378D01*
X216403391Y-127625723D01*
X216409807Y-127627834D01*
X217044392Y-127855973D01*
X217050672Y-127858425D01*
X217671891Y-128120793D01*
X217678038Y-128123588D01*
X217772515Y-128169706D01*
X218284066Y-128419415D01*
X218290055Y-128422544D01*
X218879035Y-128750924D01*
X218884844Y-128754374D01*
X219455073Y-129114354D01*
X219460675Y-129118107D01*
X219614668Y-129227489D01*
X220010469Y-129508629D01*
X220015855Y-129512680D01*
X220543568Y-129932574D01*
X220548712Y-129936902D01*
X221052756Y-130384908D01*
X221057682Y-130389533D01*
X221297120Y-130626921D01*
X221536568Y-130864320D01*
X221541215Y-130869186D01*
X221993547Y-131369375D01*
X221997915Y-131374478D01*
X222279765Y-131722519D01*
X222422331Y-131898566D01*
X222426438Y-131903931D01*
X222821644Y-132450315D01*
X222825453Y-132455896D01*
X223190331Y-133023026D01*
X223193831Y-133028806D01*
X223527214Y-133614863D01*
X223530415Y-133620866D01*
X223835355Y-134232750D01*
X223838239Y-134238962D01*
X224108887Y-134866653D01*
X224111424Y-134873015D01*
X224347002Y-135514692D01*
X224349184Y-135521184D01*
X224548976Y-136174900D01*
X224550796Y-136181503D01*
X224714187Y-136845241D01*
X224715640Y-136851934D01*
X224842136Y-137523693D01*
X224843217Y-137530457D01*
X224932427Y-138208165D01*
X224933133Y-138214977D01*
X224984789Y-138896580D01*
X224985118Y-138903422D01*
X224999061Y-139586833D01*
X224999012Y-139593681D01*
X224975200Y-140276843D01*
X224974772Y-140283679D01*
X224913278Y-140964452D01*
X224912474Y-140971254D01*
X224813482Y-141647620D01*
X224812303Y-141654367D01*
X224676122Y-142324209D01*
X224674573Y-142330881D01*
X224501607Y-142992214D01*
X224499691Y-142998790D01*
X224290486Y-143649528D01*
X224288211Y-143655988D01*
X224043382Y-144294217D01*
X224040753Y-144300541D01*
X223761068Y-144924254D01*
X223758094Y-144930424D01*
X223444394Y-145537751D01*
X223441084Y-145543747D01*
X223094335Y-146132819D01*
X223090699Y-146138624D01*
X222711940Y-146707672D01*
X222707989Y-146713266D01*
X222298401Y-147260518D01*
X222294147Y-147265886D01*
X221854964Y-147789691D01*
X221850420Y-147794816D01*
X221382984Y-148293575D01*
X221378164Y-148298441D01*
X220883912Y-148770621D01*
X220878831Y-148775214D01*
X220359248Y-149219396D01*
X220353921Y-149223701D01*
X219810613Y-149638512D01*
X219805063Y-149642512D01*
X219239673Y-150026698D01*
X219233903Y-150030389D01*
X218648168Y-150382767D01*
X218642204Y-150386134D01*
X218037912Y-150705631D01*
X218031771Y-150708664D01*
X217410752Y-150994312D01*
X217404453Y-150997001D01*
X216768628Y-151247917D01*
X216762190Y-151250255D01*
X216113451Y-151465691D01*
X216106894Y-151467669D01*
X215447262Y-151646954D01*
X215440605Y-151648567D01*
X214772087Y-151791156D01*
X214765352Y-151792399D01*
X214089990Y-151897858D01*
X214083196Y-151898728D01*
X213403018Y-151966739D01*
X213396187Y-151967232D01*
X212713300Y-151997582D01*
X212706452Y-151997697D01*
X212022921Y-151990297D01*
X212016077Y-151990033D01*
X211334036Y-151944907D01*
X211327216Y-151944267D01*
X210648654Y-151861543D01*
X210641881Y-151860526D01*
X209968973Y-151740474D01*
X209962270Y-151739086D01*
X209807766Y-151702618D01*
X209296973Y-151582051D01*
X209290353Y-151580294D01*
X208634759Y-151386770D01*
X208628246Y-151384650D01*
X207984344Y-151155226D01*
X207977958Y-151152750D01*
X207347694Y-150888119D01*
X207341455Y-150885294D01*
X206726775Y-150586272D01*
X206720701Y-150583107D01*
X206123459Y-150250597D01*
X206117569Y-150247101D01*
X205539613Y-149882131D01*
X205533925Y-149878316D01*
X204976976Y-149481974D01*
X204971508Y-149477850D01*
X204547010Y-149138954D01*
X204437303Y-149051370D01*
X204432089Y-149046966D01*
X203922239Y-148591634D01*
X203917286Y-148586959D01*
X203433330Y-148104146D01*
X203428630Y-148099190D01*
X202972106Y-147590432D01*
X202967674Y-147585210D01*
X202539931Y-147052014D01*
X202535795Y-147046556D01*
X202138148Y-146490561D01*
X202134319Y-146484882D01*
X201958441Y-146207820D01*
X201767967Y-145907764D01*
X201764481Y-145901922D01*
X201479963Y-145393713D01*
X205149500Y-145393713D01*
X205149500Y-145606287D01*
X205182754Y-145816243D01*
X205231664Y-145966773D01*
X205248444Y-146018414D01*
X205344951Y-146207820D01*
X205469890Y-146379786D01*
X205620213Y-146530109D01*
X205792179Y-146655048D01*
X205792181Y-146655049D01*
X205792184Y-146655051D01*
X205981588Y-146751557D01*
X206183757Y-146817246D01*
X206393713Y-146850500D01*
X206393714Y-146850500D01*
X206606286Y-146850500D01*
X206606287Y-146850500D01*
X206816243Y-146817246D01*
X207018412Y-146751557D01*
X207207816Y-146655051D01*
X207294563Y-146592026D01*
X207379786Y-146530109D01*
X207379788Y-146530106D01*
X207379792Y-146530104D01*
X207530104Y-146379792D01*
X207530106Y-146379788D01*
X207530109Y-146379786D01*
X207655048Y-146207820D01*
X207655047Y-146207820D01*
X207655051Y-146207816D01*
X207751557Y-146018412D01*
X207817246Y-145816243D01*
X207850500Y-145606287D01*
X207850500Y-145393713D01*
X217149500Y-145393713D01*
X217149500Y-145606287D01*
X217182754Y-145816243D01*
X217231664Y-145966773D01*
X217248444Y-146018414D01*
X217344951Y-146207820D01*
X217469890Y-146379786D01*
X217620213Y-146530109D01*
X217792179Y-146655048D01*
X217792181Y-146655049D01*
X217792184Y-146655051D01*
X217981588Y-146751557D01*
X218183757Y-146817246D01*
X218393713Y-146850500D01*
X218393714Y-146850500D01*
X218606286Y-146850500D01*
X218606287Y-146850500D01*
X218816243Y-146817246D01*
X219018412Y-146751557D01*
X219207816Y-146655051D01*
X219294563Y-146592026D01*
X219379786Y-146530109D01*
X219379788Y-146530106D01*
X219379792Y-146530104D01*
X219530104Y-146379792D01*
X219530106Y-146379788D01*
X219530109Y-146379786D01*
X219655048Y-146207820D01*
X219655047Y-146207820D01*
X219655051Y-146207816D01*
X219751557Y-146018412D01*
X219817246Y-145816243D01*
X219850500Y-145606287D01*
X219850500Y-145393713D01*
X219817246Y-145183757D01*
X219751557Y-144981588D01*
X219655051Y-144792184D01*
X219655049Y-144792181D01*
X219655048Y-144792179D01*
X219530109Y-144620213D01*
X219379786Y-144469890D01*
X219207820Y-144344951D01*
X219018414Y-144248444D01*
X219018413Y-144248443D01*
X219018412Y-144248443D01*
X218816243Y-144182754D01*
X218816241Y-144182753D01*
X218816240Y-144182753D01*
X218654957Y-144157208D01*
X218606287Y-144149500D01*
X218393713Y-144149500D01*
X218345042Y-144157208D01*
X218183760Y-144182753D01*
X217981585Y-144248444D01*
X217792179Y-144344951D01*
X217620213Y-144469890D01*
X217469890Y-144620213D01*
X217344951Y-144792179D01*
X217248444Y-144981585D01*
X217182753Y-145183760D01*
X217149500Y-145393713D01*
X207850500Y-145393713D01*
X207817246Y-145183757D01*
X207751557Y-144981588D01*
X207655051Y-144792184D01*
X207655049Y-144792181D01*
X207655048Y-144792179D01*
X207530109Y-144620213D01*
X207379786Y-144469890D01*
X207207820Y-144344951D01*
X207018414Y-144248444D01*
X207018413Y-144248443D01*
X207018412Y-144248443D01*
X206816243Y-144182754D01*
X206816241Y-144182753D01*
X206816240Y-144182753D01*
X206654957Y-144157208D01*
X206606287Y-144149500D01*
X206393713Y-144149500D01*
X206345042Y-144157208D01*
X206183760Y-144182753D01*
X205981585Y-144248444D01*
X205792179Y-144344951D01*
X205620213Y-144469890D01*
X205469890Y-144620213D01*
X205344951Y-144792179D01*
X205248444Y-144981585D01*
X205182753Y-145183760D01*
X205149500Y-145393713D01*
X201479963Y-145393713D01*
X201430539Y-145305432D01*
X201427364Y-145299372D01*
X201126894Y-144685408D01*
X201124058Y-144679185D01*
X201035600Y-144469896D01*
X200857931Y-144049534D01*
X200855443Y-144043161D01*
X200841105Y-144003220D01*
X200624492Y-143399790D01*
X200622360Y-143393290D01*
X200427285Y-142738154D01*
X200425516Y-142731550D01*
X200422588Y-142719277D01*
X200266911Y-142066637D01*
X200265508Y-142059942D01*
X200265284Y-142058701D01*
X200143525Y-141385445D01*
X200142977Y-141382151D01*
X200141434Y-141372035D01*
X200141434Y-141372032D01*
X200141433Y-141372023D01*
X200141435Y-141372022D01*
X200141429Y-141372001D01*
X200115361Y-141200782D01*
X200115361Y-141200781D01*
X200029609Y-140840340D01*
X199928418Y-140530686D01*
X199914529Y-140488183D01*
X199914522Y-140488165D01*
X199908878Y-140474745D01*
X199770885Y-140146645D01*
X199770885Y-140146644D01*
X199770884Y-140146642D01*
X199599661Y-139818079D01*
X199402016Y-139504699D01*
X199179283Y-139208622D01*
X199179280Y-139208618D01*
X198932972Y-138931854D01*
X198664759Y-138676276D01*
X198664755Y-138676272D01*
X198664745Y-138676263D01*
X198620388Y-138640466D01*
X198376419Y-138443579D01*
X198069962Y-138235392D01*
X198069960Y-138235390D01*
X198069950Y-138235384D01*
X197908659Y-138144263D01*
X197851296Y-138111840D01*
X197846091Y-138108898D01*
X197846089Y-138108897D01*
X189686209Y-133496791D01*
X189503840Y-133393713D01*
X205149500Y-133393713D01*
X205149500Y-133606287D01*
X205151809Y-133620866D01*
X205182753Y-133816239D01*
X205248444Y-134018414D01*
X205344951Y-134207820D01*
X205469890Y-134379786D01*
X205620213Y-134530109D01*
X205792179Y-134655048D01*
X205792181Y-134655049D01*
X205792184Y-134655051D01*
X205981588Y-134751557D01*
X206183757Y-134817246D01*
X206393713Y-134850500D01*
X206393714Y-134850500D01*
X206606286Y-134850500D01*
X206606287Y-134850500D01*
X206816243Y-134817246D01*
X207018412Y-134751557D01*
X207207816Y-134655051D01*
X207229789Y-134639086D01*
X207379786Y-134530109D01*
X207379788Y-134530106D01*
X207379792Y-134530104D01*
X207530104Y-134379792D01*
X207530106Y-134379788D01*
X207530109Y-134379786D01*
X207655048Y-134207820D01*
X207655047Y-134207820D01*
X207655051Y-134207816D01*
X207751557Y-134018412D01*
X207817246Y-133816243D01*
X207850500Y-133606287D01*
X207850500Y-133393713D01*
X217149500Y-133393713D01*
X217149500Y-133606287D01*
X217151809Y-133620866D01*
X217182753Y-133816239D01*
X217248444Y-134018414D01*
X217344951Y-134207820D01*
X217469890Y-134379786D01*
X217620213Y-134530109D01*
X217792179Y-134655048D01*
X217792181Y-134655049D01*
X217792184Y-134655051D01*
X217981588Y-134751557D01*
X218183757Y-134817246D01*
X218393713Y-134850500D01*
X218393714Y-134850500D01*
X218606286Y-134850500D01*
X218606287Y-134850500D01*
X218816243Y-134817246D01*
X219018412Y-134751557D01*
X219207816Y-134655051D01*
X219229789Y-134639086D01*
X219379786Y-134530109D01*
X219379788Y-134530106D01*
X219379792Y-134530104D01*
X219530104Y-134379792D01*
X219530106Y-134379788D01*
X219530109Y-134379786D01*
X219655048Y-134207820D01*
X219655047Y-134207820D01*
X219655051Y-134207816D01*
X219751557Y-134018412D01*
X219817246Y-133816243D01*
X219850500Y-133606287D01*
X219850500Y-133393713D01*
X219817246Y-133183757D01*
X219751557Y-132981588D01*
X219655051Y-132792184D01*
X219655049Y-132792181D01*
X219655048Y-132792179D01*
X219530109Y-132620213D01*
X219379786Y-132469890D01*
X219207820Y-132344951D01*
X219018414Y-132248444D01*
X219018413Y-132248443D01*
X219018412Y-132248443D01*
X218816243Y-132182754D01*
X218816241Y-132182753D01*
X218816240Y-132182753D01*
X218654957Y-132157208D01*
X218606287Y-132149500D01*
X218393713Y-132149500D01*
X218345042Y-132157208D01*
X218183760Y-132182753D01*
X217981585Y-132248444D01*
X217792179Y-132344951D01*
X217620213Y-132469890D01*
X217469890Y-132620213D01*
X217344951Y-132792179D01*
X217248444Y-132981585D01*
X217182753Y-133183760D01*
X217160229Y-133325973D01*
X217149500Y-133393713D01*
X207850500Y-133393713D01*
X207817246Y-133183757D01*
X207751557Y-132981588D01*
X207655051Y-132792184D01*
X207655049Y-132792181D01*
X207655048Y-132792179D01*
X207530109Y-132620213D01*
X207379786Y-132469890D01*
X207207820Y-132344951D01*
X207018414Y-132248444D01*
X207018413Y-132248443D01*
X207018412Y-132248443D01*
X206816243Y-132182754D01*
X206816241Y-132182753D01*
X206816240Y-132182753D01*
X206654957Y-132157208D01*
X206606287Y-132149500D01*
X206393713Y-132149500D01*
X206345042Y-132157208D01*
X206183760Y-132182753D01*
X205981585Y-132248444D01*
X205792179Y-132344951D01*
X205620213Y-132469890D01*
X205469890Y-132620213D01*
X205344951Y-132792179D01*
X205248444Y-132981585D01*
X205182753Y-133183760D01*
X205160229Y-133325973D01*
X205149500Y-133393713D01*
X189503840Y-133393713D01*
X166009764Y-120114453D01*
X166009764Y-120114452D01*
X166009762Y-120114452D01*
X165952401Y-120082030D01*
X165952384Y-120082021D01*
X165949791Y-120080555D01*
X165784347Y-119987007D01*
X165784340Y-119987003D01*
X165433173Y-119826499D01*
X165433169Y-119826497D01*
X165069548Y-119696655D01*
X165069523Y-119696648D01*
X164696132Y-119598426D01*
X164696111Y-119598421D01*
X164315675Y-119532535D01*
X164315646Y-119532531D01*
X163930974Y-119499468D01*
X163930962Y-119499468D01*
X163752752Y-119499497D01*
X163737901Y-119499500D01*
X137215214Y-119499500D01*
X137068956Y-119499475D01*
X137068955Y-119499475D01*
X137068940Y-119499475D01*
X136684272Y-119532537D01*
X136684239Y-119532542D01*
X136303810Y-119598425D01*
X136303786Y-119598430D01*
X135930394Y-119696651D01*
X135930390Y-119696652D01*
X135930383Y-119696654D01*
X135930381Y-119696655D01*
X135857790Y-119722575D01*
X135566740Y-119826501D01*
X135215572Y-119987005D01*
X135215569Y-119987007D01*
X135050130Y-120080551D01*
X135050124Y-120080555D01*
X135047515Y-120082030D01*
X135047505Y-120082035D01*
X134990153Y-120114452D01*
X134990152Y-120114453D01*
X103153827Y-138108897D01*
X103149982Y-138111070D01*
X103149981Y-138111070D01*
X103135949Y-138119001D01*
X103135838Y-138119026D01*
X102978064Y-138208165D01*
X102929939Y-138235354D01*
X102823271Y-138307820D01*
X102623463Y-138443561D01*
X102335157Y-138676236D01*
X102335143Y-138676249D01*
X102066920Y-138931845D01*
X101820616Y-139208613D01*
X101597882Y-139504697D01*
X101400251Y-139818061D01*
X101400247Y-139818068D01*
X101229032Y-140146624D01*
X101229022Y-140146644D01*
X101085393Y-140488153D01*
X101085381Y-140488183D01*
X100970304Y-140840337D01*
X100970303Y-140840341D01*
X100884554Y-141200775D01*
X100884553Y-141200778D01*
X100857230Y-141380240D01*
X100857226Y-141380268D01*
X100856925Y-141382242D01*
X100856370Y-141385578D01*
X100736055Y-142052075D01*
X100734671Y-142058701D01*
X100578558Y-142715991D01*
X100576814Y-142722532D01*
X100385073Y-143370295D01*
X100382976Y-143376731D01*
X100156158Y-144013109D01*
X100153712Y-144019421D01*
X99892519Y-144642443D01*
X99889732Y-144648612D01*
X99594923Y-145256467D01*
X99591804Y-145262474D01*
X99264273Y-145853320D01*
X99260831Y-145859149D01*
X98901537Y-146431257D01*
X98897782Y-146436889D01*
X98507799Y-146988543D01*
X98503742Y-146993961D01*
X98084252Y-147523493D01*
X98079905Y-147528683D01*
X97632134Y-148034547D01*
X97627511Y-148039491D01*
X97152801Y-148520169D01*
X97147915Y-148524853D01*
X96647706Y-148978889D01*
X96642572Y-148983301D01*
X96118290Y-149409398D01*
X96112922Y-149413522D01*
X95566193Y-149810357D01*
X95560608Y-149814182D01*
X94993047Y-150180586D01*
X94987262Y-150184101D01*
X94400544Y-150518994D01*
X94394576Y-150522188D01*
X93790450Y-150824567D01*
X93784317Y-150827430D01*
X93164600Y-151096390D01*
X93158319Y-151098915D01*
X93013040Y-151152750D01*
X92622004Y-151297653D01*
X92524851Y-151333654D01*
X92518441Y-151335832D01*
X91873075Y-151535664D01*
X91866557Y-151537488D01*
X91211304Y-151701792D01*
X91204696Y-151703259D01*
X90541418Y-151831568D01*
X90534739Y-151832672D01*
X89865438Y-151924596D01*
X89858710Y-151925333D01*
X89185430Y-151980595D01*
X89178671Y-151980965D01*
X88503327Y-151999405D01*
X88496466Y-151999402D01*
X87803006Y-151979956D01*
X87796066Y-151979567D01*
X87104749Y-151921290D01*
X87097841Y-151920512D01*
X86410884Y-151823588D01*
X86404031Y-151822424D01*
X85723591Y-151687159D01*
X85716814Y-151685613D01*
X85045027Y-151512432D01*
X85038347Y-151510509D01*
X84377304Y-151299948D01*
X84370742Y-151297653D01*
X83722563Y-151050391D01*
X83716140Y-151047733D01*
X83082801Y-150764523D01*
X83076537Y-150761508D01*
X82460097Y-150443268D01*
X82454012Y-150439908D01*
X81856341Y-150087606D01*
X81850455Y-150083909D01*
X81273489Y-149698686D01*
X81267845Y-149694686D01*
X80713325Y-149277698D01*
X80707906Y-149273380D01*
X80643922Y-149219396D01*
X80177644Y-148825993D01*
X80172480Y-148821382D01*
X79668131Y-148344992D01*
X79663219Y-148340085D01*
X79621568Y-148296072D01*
X79186357Y-147836178D01*
X79181723Y-147830997D01*
X78904220Y-147502713D01*
X78733852Y-147301168D01*
X78729539Y-147295766D01*
X78369004Y-146817246D01*
X78312054Y-146741659D01*
X78308028Y-146735992D01*
X77922257Y-146159375D01*
X77918555Y-146153491D01*
X77906344Y-146132819D01*
X77565694Y-145556150D01*
X77562344Y-145550095D01*
X77481426Y-145393713D01*
X81149500Y-145393713D01*
X81149500Y-145606287D01*
X81182754Y-145816243D01*
X81231664Y-145966773D01*
X81248444Y-146018414D01*
X81344951Y-146207820D01*
X81469890Y-146379786D01*
X81620213Y-146530109D01*
X81792179Y-146655048D01*
X81792181Y-146655049D01*
X81792184Y-146655051D01*
X81981588Y-146751557D01*
X82183757Y-146817246D01*
X82393713Y-146850500D01*
X82393714Y-146850500D01*
X82606286Y-146850500D01*
X82606287Y-146850500D01*
X82816243Y-146817246D01*
X83018412Y-146751557D01*
X83207816Y-146655051D01*
X83294563Y-146592026D01*
X83379786Y-146530109D01*
X83379788Y-146530106D01*
X83379792Y-146530104D01*
X83530104Y-146379792D01*
X83530106Y-146379788D01*
X83530109Y-146379786D01*
X83655048Y-146207820D01*
X83655047Y-146207820D01*
X83655051Y-146207816D01*
X83751557Y-146018412D01*
X83817246Y-145816243D01*
X83850500Y-145606287D01*
X83850500Y-145393713D01*
X93149500Y-145393713D01*
X93149500Y-145606287D01*
X93182754Y-145816243D01*
X93231664Y-145966773D01*
X93248444Y-146018414D01*
X93344951Y-146207820D01*
X93469890Y-146379786D01*
X93620213Y-146530109D01*
X93792179Y-146655048D01*
X93792181Y-146655049D01*
X93792184Y-146655051D01*
X93981588Y-146751557D01*
X94183757Y-146817246D01*
X94393713Y-146850500D01*
X94393714Y-146850500D01*
X94606286Y-146850500D01*
X94606287Y-146850500D01*
X94816243Y-146817246D01*
X95018412Y-146751557D01*
X95207816Y-146655051D01*
X95294563Y-146592026D01*
X95379786Y-146530109D01*
X95379788Y-146530106D01*
X95379792Y-146530104D01*
X95530104Y-146379792D01*
X95530106Y-146379788D01*
X95530109Y-146379786D01*
X95655048Y-146207820D01*
X95655047Y-146207820D01*
X95655051Y-146207816D01*
X95751557Y-146018412D01*
X95817246Y-145816243D01*
X95850500Y-145606287D01*
X95850500Y-145393713D01*
X95817246Y-145183757D01*
X95751557Y-144981588D01*
X95655051Y-144792184D01*
X95655049Y-144792181D01*
X95655048Y-144792179D01*
X95530109Y-144620213D01*
X95379786Y-144469890D01*
X95207820Y-144344951D01*
X95018414Y-144248444D01*
X95018413Y-144248443D01*
X95018412Y-144248443D01*
X94816243Y-144182754D01*
X94816241Y-144182753D01*
X94816240Y-144182753D01*
X94654957Y-144157208D01*
X94606287Y-144149500D01*
X94393713Y-144149500D01*
X94345042Y-144157208D01*
X94183760Y-144182753D01*
X93981585Y-144248444D01*
X93792179Y-144344951D01*
X93620213Y-144469890D01*
X93469890Y-144620213D01*
X93344951Y-144792179D01*
X93248444Y-144981585D01*
X93182753Y-145183760D01*
X93149500Y-145393713D01*
X83850500Y-145393713D01*
X83817246Y-145183757D01*
X83751557Y-144981588D01*
X83655051Y-144792184D01*
X83655049Y-144792181D01*
X83655048Y-144792179D01*
X83530109Y-144620213D01*
X83379786Y-144469890D01*
X83207820Y-144344951D01*
X83018414Y-144248444D01*
X83018413Y-144248443D01*
X83018412Y-144248443D01*
X82816243Y-144182754D01*
X82816241Y-144182753D01*
X82816240Y-144182753D01*
X82654957Y-144157208D01*
X82606287Y-144149500D01*
X82393713Y-144149500D01*
X82345042Y-144157208D01*
X82183760Y-144182753D01*
X81981585Y-144248444D01*
X81792179Y-144344951D01*
X81620213Y-144469890D01*
X81469890Y-144620213D01*
X81344951Y-144792179D01*
X81248444Y-144981585D01*
X81182753Y-145183760D01*
X81149500Y-145393713D01*
X77481426Y-145393713D01*
X77243504Y-144933902D01*
X77240519Y-144927715D01*
X76956691Y-144294584D01*
X76954041Y-144288198D01*
X76938833Y-144248444D01*
X76706166Y-143640228D01*
X76703867Y-143633675D01*
X76628101Y-143396577D01*
X76492680Y-142972800D01*
X76490762Y-142966157D01*
X76316954Y-142294535D01*
X76315401Y-142287760D01*
X76269891Y-142059942D01*
X76179493Y-141607417D01*
X76178325Y-141600571D01*
X76168981Y-141534785D01*
X76080759Y-140913696D01*
X76079977Y-140906803D01*
X76074311Y-140840337D01*
X76021054Y-140215547D01*
X76020659Y-140208614D01*
X76000564Y-139515124D01*
X76000559Y-139508189D01*
X76002921Y-139421068D01*
X76019358Y-138814669D01*
X76019738Y-138807781D01*
X76077372Y-138116373D01*
X76078137Y-138109520D01*
X76174428Y-137422413D01*
X76175573Y-137415631D01*
X76310217Y-136734990D01*
X76311753Y-136728234D01*
X76484314Y-136056258D01*
X76486214Y-136049633D01*
X76696167Y-135388362D01*
X76698441Y-135381837D01*
X76945126Y-134733353D01*
X76947760Y-134726974D01*
X77230381Y-134093365D01*
X77233389Y-134087102D01*
X77268769Y-134018412D01*
X77551073Y-133470324D01*
X77554383Y-133464317D01*
X77595912Y-133393713D01*
X81149500Y-133393713D01*
X81149500Y-133606287D01*
X81151809Y-133620866D01*
X81182753Y-133816239D01*
X81248444Y-134018414D01*
X81344951Y-134207820D01*
X81469890Y-134379786D01*
X81620213Y-134530109D01*
X81792179Y-134655048D01*
X81792181Y-134655049D01*
X81792184Y-134655051D01*
X81981588Y-134751557D01*
X82183757Y-134817246D01*
X82393713Y-134850500D01*
X82393714Y-134850500D01*
X82606286Y-134850500D01*
X82606287Y-134850500D01*
X82816243Y-134817246D01*
X83018412Y-134751557D01*
X83207816Y-134655051D01*
X83229789Y-134639086D01*
X83379786Y-134530109D01*
X83379788Y-134530106D01*
X83379792Y-134530104D01*
X83530104Y-134379792D01*
X83530106Y-134379788D01*
X83530109Y-134379786D01*
X83655048Y-134207820D01*
X83655047Y-134207820D01*
X83655051Y-134207816D01*
X83751557Y-134018412D01*
X83817246Y-133816243D01*
X83850500Y-133606287D01*
X83850500Y-133393713D01*
X93149500Y-133393713D01*
X93149500Y-133606287D01*
X93151809Y-133620866D01*
X93182753Y-133816239D01*
X93248444Y-134018414D01*
X93344951Y-134207820D01*
X93469890Y-134379786D01*
X93620213Y-134530109D01*
X93792179Y-134655048D01*
X93792181Y-134655049D01*
X93792184Y-134655051D01*
X93981588Y-134751557D01*
X94183757Y-134817246D01*
X94393713Y-134850500D01*
X94393714Y-134850500D01*
X94606286Y-134850500D01*
X94606287Y-134850500D01*
X94816243Y-134817246D01*
X95018412Y-134751557D01*
X95207816Y-134655051D01*
X95229789Y-134639086D01*
X95379786Y-134530109D01*
X95379788Y-134530106D01*
X95379792Y-134530104D01*
X95530104Y-134379792D01*
X95530106Y-134379788D01*
X95530109Y-134379786D01*
X95655048Y-134207820D01*
X95655047Y-134207820D01*
X95655051Y-134207816D01*
X95751557Y-134018412D01*
X95817246Y-133816243D01*
X95850500Y-133606287D01*
X95850500Y-133393713D01*
X95817246Y-133183757D01*
X95751557Y-132981588D01*
X95655051Y-132792184D01*
X95655049Y-132792181D01*
X95655048Y-132792179D01*
X95530109Y-132620213D01*
X95379786Y-132469890D01*
X95207820Y-132344951D01*
X95018414Y-132248444D01*
X95018413Y-132248443D01*
X95018412Y-132248443D01*
X94816243Y-132182754D01*
X94816241Y-132182753D01*
X94816240Y-132182753D01*
X94654957Y-132157208D01*
X94606287Y-132149500D01*
X94393713Y-132149500D01*
X94345042Y-132157208D01*
X94183760Y-132182753D01*
X93981585Y-132248444D01*
X93792179Y-132344951D01*
X93620213Y-132469890D01*
X93469890Y-132620213D01*
X93344951Y-132792179D01*
X93248444Y-132981585D01*
X93182753Y-133183760D01*
X93160229Y-133325973D01*
X93149500Y-133393713D01*
X83850500Y-133393713D01*
X83817246Y-133183757D01*
X83751557Y-132981588D01*
X83655051Y-132792184D01*
X83655049Y-132792181D01*
X83655048Y-132792179D01*
X83530109Y-132620213D01*
X83379786Y-132469890D01*
X83207820Y-132344951D01*
X83018414Y-132248444D01*
X83018413Y-132248443D01*
X83018412Y-132248443D01*
X82816243Y-132182754D01*
X82816241Y-132182753D01*
X82816240Y-132182753D01*
X82654957Y-132157208D01*
X82606287Y-132149500D01*
X82393713Y-132149500D01*
X82345042Y-132157208D01*
X82183760Y-132182753D01*
X81981585Y-132248444D01*
X81792179Y-132344951D01*
X81620213Y-132469890D01*
X81469890Y-132620213D01*
X81344951Y-132792179D01*
X81248444Y-132981585D01*
X81182753Y-133183760D01*
X81160229Y-133325973D01*
X81149500Y-133393713D01*
X77595912Y-133393713D01*
X77906153Y-132866272D01*
X77909822Y-132860415D01*
X78294542Y-132283037D01*
X78298518Y-132277418D01*
X78715021Y-131722461D01*
X78719274Y-131717114D01*
X79166204Y-131186390D01*
X79170781Y-131181253D01*
X79646749Y-130676408D01*
X79651611Y-130671533D01*
X80155096Y-130194176D01*
X80160212Y-130189589D01*
X80689701Y-129741159D01*
X80695082Y-129736856D01*
X81248791Y-129318858D01*
X81254439Y-129314839D01*
X81830708Y-128928521D01*
X81836561Y-128924829D01*
X82433609Y-128571390D01*
X82439633Y-128568049D01*
X83055533Y-128248631D01*
X83061764Y-128245618D01*
X83694574Y-127961224D01*
X83700972Y-127958562D01*
X84348729Y-127710073D01*
X84355255Y-127707777D01*
X85015933Y-127495973D01*
X85022593Y-127494043D01*
X85694079Y-127319600D01*
X85700806Y-127318052D01*
X86381055Y-127181503D01*
X86387860Y-127180335D01*
X87074673Y-127082123D01*
X87081515Y-127081339D01*
X87772751Y-127021769D01*
X87779666Y-127021367D01*
X88473169Y-127000624D01*
X88480052Y-127000612D01*
X89173622Y-127018763D01*
X89180546Y-127019139D01*
X89871979Y-127076125D01*
X89878853Y-127076887D01*
X90566019Y-127172530D01*
X90572842Y-127173676D01*
X91253568Y-127307677D01*
X91260311Y-127309202D01*
X91932479Y-127481143D01*
X91939115Y-127483041D01*
X92600561Y-127692368D01*
X92607101Y-127694641D01*
X92857353Y-127789570D01*
X93256117Y-127940835D01*
X93259280Y-127942085D01*
X93318776Y-127966541D01*
X93319368Y-127966784D01*
X93319392Y-127966804D01*
X93319436Y-127966813D01*
X93327429Y-127970104D01*
X93327754Y-127970212D01*
X93430325Y-128012472D01*
X93551752Y-128051144D01*
X93783337Y-128124902D01*
X93783371Y-128124911D01*
X93978182Y-128169714D01*
X94144424Y-128207947D01*
X94511101Y-128261032D01*
X94880899Y-128283802D01*
X95251318Y-128276105D01*
X95619851Y-128237990D01*
X95619869Y-128237986D01*
X95619873Y-128237986D01*
X95779982Y-128207968D01*
X95984005Y-128169717D01*
X95984012Y-128169715D01*
X95984017Y-128169714D01*
X96120839Y-128132198D01*
X96341316Y-128071747D01*
X96628885Y-127966813D01*
X96689357Y-127944747D01*
X96689360Y-127944745D01*
X96689367Y-127944743D01*
X96913855Y-127841200D01*
X97025793Y-127789570D01*
X97025795Y-127789568D01*
X97025803Y-127789565D01*
X97182032Y-127701222D01*
X121271827Y-114085251D01*
X121271829Y-114085248D01*
X121279114Y-114081131D01*
X121279221Y-114081059D01*
X121387029Y-114020160D01*
X121713665Y-113795510D01*
X121922279Y-113623157D01*
X122019281Y-113543018D01*
X122019283Y-113543016D01*
X122030833Y-113531623D01*
X122301525Y-113264624D01*
X122558196Y-112962501D01*
X122787312Y-112638982D01*
X122987098Y-112296572D01*
X123156008Y-111937924D01*
X123292733Y-111565815D01*
X123396214Y-111183127D01*
X123465650Y-110792823D01*
X123500504Y-110397925D01*
X123500458Y-110199709D01*
X123500458Y-110133817D01*
X123500458Y-109921153D01*
X153699500Y-109921153D01*
X153699500Y-110078846D01*
X153730261Y-110233489D01*
X153730264Y-110233501D01*
X153790602Y-110379172D01*
X153790609Y-110379185D01*
X153878210Y-110510288D01*
X153878213Y-110510292D01*
X153989707Y-110621786D01*
X153989711Y-110621789D01*
X154120814Y-110709390D01*
X154120827Y-110709397D01*
X154266498Y-110769735D01*
X154266503Y-110769737D01*
X154382599Y-110792830D01*
X154421153Y-110800499D01*
X154421156Y-110800500D01*
X154421158Y-110800500D01*
X154578844Y-110800500D01*
X154578845Y-110800499D01*
X154733497Y-110769737D01*
X154879179Y-110709394D01*
X155010289Y-110621789D01*
X155121789Y-110510289D01*
X155209394Y-110379179D01*
X155269737Y-110233497D01*
X155300500Y-110078842D01*
X155300500Y-109921158D01*
X155300500Y-109921155D01*
X155300499Y-109921153D01*
X155269738Y-109766510D01*
X155269737Y-109766503D01*
X155269735Y-109766498D01*
X155209397Y-109620827D01*
X155209390Y-109620814D01*
X155121789Y-109489711D01*
X155121786Y-109489707D01*
X155010292Y-109378213D01*
X155010288Y-109378210D01*
X154879185Y-109290609D01*
X154879172Y-109290602D01*
X154733501Y-109230264D01*
X154733489Y-109230261D01*
X154578845Y-109199500D01*
X154578842Y-109199500D01*
X154421158Y-109199500D01*
X154421155Y-109199500D01*
X154266510Y-109230261D01*
X154266498Y-109230264D01*
X154120827Y-109290602D01*
X154120814Y-109290609D01*
X153989711Y-109378210D01*
X153989707Y-109378213D01*
X153878213Y-109489707D01*
X153878210Y-109489711D01*
X153790609Y-109620814D01*
X153790602Y-109620827D01*
X153730264Y-109766498D01*
X153730261Y-109766510D01*
X153699500Y-109921153D01*
X123500458Y-109921153D01*
X123500458Y-105921153D01*
X149199500Y-105921153D01*
X149199500Y-106078846D01*
X149230261Y-106233489D01*
X149230264Y-106233501D01*
X149290602Y-106379172D01*
X149290609Y-106379185D01*
X149378210Y-106510288D01*
X149378213Y-106510292D01*
X149489707Y-106621786D01*
X149489711Y-106621789D01*
X149620814Y-106709390D01*
X149620827Y-106709397D01*
X149766498Y-106769735D01*
X149766503Y-106769737D01*
X149921153Y-106800499D01*
X149921156Y-106800500D01*
X149921158Y-106800500D01*
X150078844Y-106800500D01*
X150078845Y-106800499D01*
X150233497Y-106769737D01*
X150352550Y-106720423D01*
X150422017Y-106712955D01*
X150447450Y-106720422D01*
X150566506Y-106769737D01*
X150721156Y-106800499D01*
X150721159Y-106800500D01*
X150721161Y-106800500D01*
X150878847Y-106800500D01*
X150878848Y-106800499D01*
X151033500Y-106769737D01*
X151179182Y-106709394D01*
X151310292Y-106621789D01*
X151421792Y-106510289D01*
X151509397Y-106379179D01*
X151569740Y-106233497D01*
X151600503Y-106078842D01*
X151600503Y-105921158D01*
X151600503Y-105921155D01*
X151600502Y-105921153D01*
X151569741Y-105766510D01*
X151569740Y-105766503D01*
X151569738Y-105766498D01*
X151509400Y-105620827D01*
X151509393Y-105620814D01*
X151421792Y-105489711D01*
X151421789Y-105489707D01*
X151310295Y-105378213D01*
X151310291Y-105378210D01*
X151179188Y-105290609D01*
X151179175Y-105290602D01*
X151033504Y-105230264D01*
X151033492Y-105230261D01*
X150878848Y-105199500D01*
X150878845Y-105199500D01*
X150721161Y-105199500D01*
X150721158Y-105199500D01*
X150566513Y-105230261D01*
X150566501Y-105230264D01*
X150447453Y-105279575D01*
X150377983Y-105287044D01*
X150352549Y-105279575D01*
X150233501Y-105230264D01*
X150233489Y-105230261D01*
X150078845Y-105199500D01*
X150078842Y-105199500D01*
X149921158Y-105199500D01*
X149921155Y-105199500D01*
X149766510Y-105230261D01*
X149766498Y-105230264D01*
X149620827Y-105290602D01*
X149620814Y-105290609D01*
X149489711Y-105378210D01*
X149489707Y-105378213D01*
X149378213Y-105489707D01*
X149378210Y-105489711D01*
X149290609Y-105620814D01*
X149290602Y-105620827D01*
X149230264Y-105766498D01*
X149230261Y-105766510D01*
X149199500Y-105921153D01*
X123500458Y-105921153D01*
X123500458Y-101421153D01*
X151699500Y-101421153D01*
X151699500Y-101578846D01*
X151730261Y-101733489D01*
X151730264Y-101733501D01*
X151790602Y-101879172D01*
X151790609Y-101879185D01*
X151878210Y-102010288D01*
X151878213Y-102010292D01*
X151989707Y-102121786D01*
X151989711Y-102121789D01*
X152120814Y-102209390D01*
X152120827Y-102209397D01*
X152266498Y-102269735D01*
X152266503Y-102269737D01*
X152421153Y-102300499D01*
X152421156Y-102300500D01*
X152421158Y-102300500D01*
X152578844Y-102300500D01*
X152578845Y-102300499D01*
X152733497Y-102269737D01*
X152879179Y-102209394D01*
X153010289Y-102121789D01*
X153121789Y-102010289D01*
X153209394Y-101879179D01*
X153269737Y-101733497D01*
X153300500Y-101578842D01*
X153300500Y-101421158D01*
X153300500Y-101421155D01*
X153300499Y-101421153D01*
X153269738Y-101266510D01*
X153269737Y-101266503D01*
X153269735Y-101266498D01*
X153209397Y-101120827D01*
X153209390Y-101120814D01*
X153121789Y-100989711D01*
X153121786Y-100989707D01*
X153010292Y-100878213D01*
X153010288Y-100878210D01*
X152879185Y-100790609D01*
X152879172Y-100790602D01*
X152733501Y-100730264D01*
X152733489Y-100730261D01*
X152578845Y-100699500D01*
X152578842Y-100699500D01*
X152421158Y-100699500D01*
X152421155Y-100699500D01*
X152266510Y-100730261D01*
X152266498Y-100730264D01*
X152120827Y-100790602D01*
X152120814Y-100790609D01*
X151989711Y-100878210D01*
X151989707Y-100878213D01*
X151878213Y-100989707D01*
X151878210Y-100989711D01*
X151790609Y-101120814D01*
X151790602Y-101120827D01*
X151730264Y-101266498D01*
X151730261Y-101266510D01*
X151699500Y-101421153D01*
X123500458Y-101421153D01*
X123500458Y-99771151D01*
X149549498Y-99771151D01*
X149549498Y-99928844D01*
X149580259Y-100083487D01*
X149580262Y-100083499D01*
X149640600Y-100229170D01*
X149640607Y-100229183D01*
X149728208Y-100360286D01*
X149728211Y-100360290D01*
X149839705Y-100471784D01*
X149839709Y-100471787D01*
X149970812Y-100559388D01*
X149970825Y-100559395D01*
X150116496Y-100619733D01*
X150116501Y-100619735D01*
X150271151Y-100650497D01*
X150271154Y-100650498D01*
X150271156Y-100650498D01*
X150428842Y-100650498D01*
X150428843Y-100650497D01*
X150583495Y-100619735D01*
X150729177Y-100559392D01*
X150860287Y-100471787D01*
X150971787Y-100360287D01*
X151059392Y-100229177D01*
X151119735Y-100083495D01*
X151150498Y-99928840D01*
X151150498Y-99771156D01*
X151150498Y-99771153D01*
X151150497Y-99771151D01*
X151119736Y-99616508D01*
X151119735Y-99616501D01*
X151119733Y-99616496D01*
X151059395Y-99470825D01*
X151059388Y-99470812D01*
X150971787Y-99339709D01*
X150971784Y-99339705D01*
X150860290Y-99228211D01*
X150860286Y-99228208D01*
X150729183Y-99140607D01*
X150729170Y-99140600D01*
X150583499Y-99080262D01*
X150583487Y-99080259D01*
X150428843Y-99049498D01*
X150428840Y-99049498D01*
X150271156Y-99049498D01*
X150271153Y-99049498D01*
X150116508Y-99080259D01*
X150116496Y-99080262D01*
X149970825Y-99140600D01*
X149970812Y-99140607D01*
X149839709Y-99228208D01*
X149839705Y-99228211D01*
X149728211Y-99339705D01*
X149728208Y-99339709D01*
X149640607Y-99470812D01*
X149640600Y-99470825D01*
X149580262Y-99616496D01*
X149580259Y-99616508D01*
X149549498Y-99771151D01*
X123500458Y-99771151D01*
X123500458Y-97403213D01*
X150351790Y-97403213D01*
X150351790Y-97560906D01*
X150382551Y-97715549D01*
X150382554Y-97715561D01*
X150442892Y-97861232D01*
X150442899Y-97861245D01*
X150530500Y-97992348D01*
X150530503Y-97992352D01*
X150641997Y-98103846D01*
X150642001Y-98103849D01*
X150773104Y-98191450D01*
X150773117Y-98191457D01*
X150896717Y-98242653D01*
X150918793Y-98251797D01*
X151073443Y-98282559D01*
X151073446Y-98282560D01*
X151073448Y-98282560D01*
X151231134Y-98282560D01*
X151231135Y-98282559D01*
X151385787Y-98251797D01*
X151531469Y-98191454D01*
X151531474Y-98191450D01*
X151536844Y-98188581D01*
X151537785Y-98190341D01*
X151595705Y-98172200D01*
X151663087Y-98190679D01*
X151709782Y-98242653D01*
X151720965Y-98311622D01*
X151719547Y-98320371D01*
X151699500Y-98421153D01*
X151699500Y-98578846D01*
X151730261Y-98733489D01*
X151730264Y-98733501D01*
X151790602Y-98879172D01*
X151790609Y-98879185D01*
X151878210Y-99010288D01*
X151878213Y-99010292D01*
X151989707Y-99121786D01*
X151989711Y-99121789D01*
X152120814Y-99209390D01*
X152120827Y-99209397D01*
X152266498Y-99269735D01*
X152266503Y-99269737D01*
X152421153Y-99300499D01*
X152421156Y-99300500D01*
X152421158Y-99300500D01*
X152578844Y-99300500D01*
X152578845Y-99300499D01*
X152733497Y-99269737D01*
X152872079Y-99212335D01*
X152879172Y-99209397D01*
X152879172Y-99209396D01*
X152879179Y-99209394D01*
X153010289Y-99121789D01*
X153121789Y-99010289D01*
X153209394Y-98879179D01*
X153269737Y-98733497D01*
X153300500Y-98578842D01*
X153300500Y-98421158D01*
X153300500Y-98421155D01*
X153300499Y-98421153D01*
X153272931Y-98282560D01*
X153269737Y-98266503D01*
X153238651Y-98191454D01*
X153209397Y-98120827D01*
X153209390Y-98120814D01*
X153121789Y-97989711D01*
X153121786Y-97989707D01*
X153010292Y-97878213D01*
X153010288Y-97878210D01*
X152879185Y-97790609D01*
X152879172Y-97790602D01*
X152733501Y-97730264D01*
X152733489Y-97730261D01*
X152578845Y-97699500D01*
X152578842Y-97699500D01*
X152421158Y-97699500D01*
X152421155Y-97699500D01*
X152266510Y-97730261D01*
X152266498Y-97730264D01*
X152120827Y-97790602D01*
X152115446Y-97793479D01*
X152114509Y-97791727D01*
X152056529Y-97809860D01*
X151989156Y-97791352D01*
X151942484Y-97739357D01*
X151931331Y-97670383D01*
X151932742Y-97661687D01*
X151952790Y-97560904D01*
X151952790Y-97403215D01*
X151952789Y-97403213D01*
X151922028Y-97248570D01*
X151922027Y-97248563D01*
X151911075Y-97222123D01*
X151861687Y-97102887D01*
X151861680Y-97102874D01*
X151774079Y-96971771D01*
X151774076Y-96971767D01*
X151662582Y-96860273D01*
X151662578Y-96860270D01*
X151531475Y-96772669D01*
X151531462Y-96772662D01*
X151385791Y-96712324D01*
X151385779Y-96712321D01*
X151231135Y-96681560D01*
X151231132Y-96681560D01*
X151073448Y-96681560D01*
X151073445Y-96681560D01*
X150918800Y-96712321D01*
X150918788Y-96712324D01*
X150773117Y-96772662D01*
X150773104Y-96772669D01*
X150642001Y-96860270D01*
X150641997Y-96860273D01*
X150530503Y-96971767D01*
X150530500Y-96971771D01*
X150442899Y-97102874D01*
X150442892Y-97102887D01*
X150382554Y-97248558D01*
X150382551Y-97248570D01*
X150351790Y-97403213D01*
X123500458Y-97403213D01*
X123500458Y-91783653D01*
X148837000Y-91783653D01*
X148837000Y-91941346D01*
X148867761Y-92095989D01*
X148867764Y-92096001D01*
X148928102Y-92241672D01*
X148928109Y-92241685D01*
X149015710Y-92372788D01*
X149015713Y-92372792D01*
X149127207Y-92484286D01*
X149127211Y-92484289D01*
X149258314Y-92571890D01*
X149258327Y-92571897D01*
X149403998Y-92632235D01*
X149404003Y-92632237D01*
X149558653Y-92662999D01*
X149558656Y-92663000D01*
X149558658Y-92663000D01*
X149716344Y-92663000D01*
X149791293Y-92648091D01*
X149856588Y-92635103D01*
X149926179Y-92641330D01*
X149981356Y-92684193D01*
X150004601Y-92750082D01*
X150002396Y-92780911D01*
X149974500Y-92921153D01*
X149974500Y-93078846D01*
X150005261Y-93233489D01*
X150005264Y-93233501D01*
X150065602Y-93379172D01*
X150065609Y-93379185D01*
X150153210Y-93510288D01*
X150153213Y-93510292D01*
X150264707Y-93621786D01*
X150264711Y-93621789D01*
X150395814Y-93709390D01*
X150395827Y-93709397D01*
X150488590Y-93747820D01*
X150541503Y-93769737D01*
X150696153Y-93800499D01*
X150696156Y-93800500D01*
X150696158Y-93800500D01*
X150853844Y-93800500D01*
X150853845Y-93800499D01*
X151008497Y-93769737D01*
X151154179Y-93709394D01*
X151285289Y-93621789D01*
X151396789Y-93510289D01*
X151484394Y-93379179D01*
X151544737Y-93233497D01*
X151575500Y-93078842D01*
X151575500Y-92921158D01*
X151575500Y-92921155D01*
X151575499Y-92921153D01*
X151544738Y-92766510D01*
X151544737Y-92766503D01*
X151537935Y-92750082D01*
X151484397Y-92620827D01*
X151484390Y-92620814D01*
X151396789Y-92489711D01*
X151396786Y-92489707D01*
X151285292Y-92378213D01*
X151285288Y-92378210D01*
X151154185Y-92290609D01*
X151154172Y-92290602D01*
X151008501Y-92230264D01*
X151008489Y-92230261D01*
X150853845Y-92199500D01*
X150853842Y-92199500D01*
X150696158Y-92199500D01*
X150696153Y-92199500D01*
X150555911Y-92227396D01*
X150486319Y-92221169D01*
X150431142Y-92178306D01*
X150407898Y-92112416D01*
X150410103Y-92081587D01*
X150438000Y-91941344D01*
X150438000Y-91783655D01*
X150437999Y-91783653D01*
X150412418Y-91655050D01*
X150407237Y-91629003D01*
X150366272Y-91530104D01*
X150346897Y-91483327D01*
X150346890Y-91483314D01*
X150259289Y-91352211D01*
X150259286Y-91352207D01*
X150147792Y-91240713D01*
X150147788Y-91240710D01*
X150016685Y-91153109D01*
X150016672Y-91153102D01*
X149871001Y-91092764D01*
X149870989Y-91092761D01*
X149716345Y-91062000D01*
X149716342Y-91062000D01*
X149558658Y-91062000D01*
X149558655Y-91062000D01*
X149404010Y-91092761D01*
X149403998Y-91092764D01*
X149258327Y-91153102D01*
X149258314Y-91153109D01*
X149127211Y-91240710D01*
X149127207Y-91240713D01*
X149015713Y-91352207D01*
X149015710Y-91352211D01*
X148928109Y-91483314D01*
X148928102Y-91483327D01*
X148867764Y-91628998D01*
X148867761Y-91629010D01*
X148837000Y-91783653D01*
X123500458Y-91783653D01*
X123500458Y-90393713D01*
X174149500Y-90393713D01*
X174149500Y-90606286D01*
X174182753Y-90816239D01*
X174248444Y-91018414D01*
X174344951Y-91207820D01*
X174469890Y-91379786D01*
X174620213Y-91530109D01*
X174792182Y-91655050D01*
X174800946Y-91659516D01*
X174851742Y-91707491D01*
X174868536Y-91775312D01*
X174845998Y-91841447D01*
X174800946Y-91880484D01*
X174792182Y-91884949D01*
X174620213Y-92009890D01*
X174469890Y-92160213D01*
X174344951Y-92332179D01*
X174248444Y-92521585D01*
X174182753Y-92723760D01*
X174149500Y-92933713D01*
X174149500Y-93146286D01*
X174163311Y-93233489D01*
X174182754Y-93356243D01*
X174232806Y-93510288D01*
X174248444Y-93558414D01*
X174344951Y-93747820D01*
X174469890Y-93919786D01*
X174620213Y-94070109D01*
X174792182Y-94195050D01*
X174800946Y-94199516D01*
X174851742Y-94247491D01*
X174868536Y-94315312D01*
X174845998Y-94381447D01*
X174800946Y-94420484D01*
X174792182Y-94424949D01*
X174620213Y-94549890D01*
X174469890Y-94700213D01*
X174344951Y-94872179D01*
X174248444Y-95061585D01*
X174182753Y-95263760D01*
X174149500Y-95473713D01*
X174149500Y-95686286D01*
X174182753Y-95896239D01*
X174248444Y-96098414D01*
X174344951Y-96287820D01*
X174469890Y-96459786D01*
X174583430Y-96573326D01*
X174616915Y-96634649D01*
X174611931Y-96704341D01*
X174570059Y-96760274D01*
X174539083Y-96777189D01*
X174407669Y-96826203D01*
X174407664Y-96826206D01*
X174292455Y-96912452D01*
X174292452Y-96912455D01*
X174206206Y-97027664D01*
X174206202Y-97027671D01*
X174155908Y-97162517D01*
X174149501Y-97222116D01*
X174149501Y-97222123D01*
X174149500Y-97222135D01*
X174149500Y-99017870D01*
X174149501Y-99017876D01*
X174155908Y-99077483D01*
X174206202Y-99212328D01*
X174206206Y-99212335D01*
X174292452Y-99327544D01*
X174292455Y-99327547D01*
X174407664Y-99413793D01*
X174407671Y-99413797D01*
X174542517Y-99464091D01*
X174542516Y-99464091D01*
X174549444Y-99464835D01*
X174602127Y-99470500D01*
X176397872Y-99470499D01*
X176457483Y-99464091D01*
X176592331Y-99413796D01*
X176707546Y-99327546D01*
X176793796Y-99212331D01*
X176844091Y-99077483D01*
X176850500Y-99017873D01*
X176850499Y-97222128D01*
X176844091Y-97162517D01*
X176821850Y-97102887D01*
X176793797Y-97027671D01*
X176793793Y-97027664D01*
X176707547Y-96912455D01*
X176707544Y-96912452D01*
X176592335Y-96826206D01*
X176592328Y-96826202D01*
X176460917Y-96777189D01*
X176404983Y-96735318D01*
X176380566Y-96669853D01*
X176395418Y-96601580D01*
X176416563Y-96573332D01*
X176530104Y-96459792D01*
X176655051Y-96287816D01*
X176751557Y-96098412D01*
X176817246Y-95896243D01*
X176850500Y-95686287D01*
X176850500Y-95473713D01*
X176817246Y-95263757D01*
X176751557Y-95061588D01*
X176655051Y-94872184D01*
X176655049Y-94872181D01*
X176655048Y-94872179D01*
X176530109Y-94700213D01*
X176379786Y-94549890D01*
X176207820Y-94424951D01*
X176207115Y-94424591D01*
X176199054Y-94420485D01*
X176148259Y-94372512D01*
X176131463Y-94304692D01*
X176153999Y-94238556D01*
X176199054Y-94199515D01*
X176207816Y-94195051D01*
X176229789Y-94179086D01*
X176379786Y-94070109D01*
X176379788Y-94070106D01*
X176379792Y-94070104D01*
X176530104Y-93919792D01*
X176530106Y-93919788D01*
X176530109Y-93919786D01*
X176655048Y-93747820D01*
X176655047Y-93747820D01*
X176655051Y-93747816D01*
X176751557Y-93558412D01*
X176817246Y-93356243D01*
X176850500Y-93146287D01*
X176850500Y-92933713D01*
X176817246Y-92723757D01*
X176751557Y-92521588D01*
X176655051Y-92332184D01*
X176655049Y-92332181D01*
X176655048Y-92332179D01*
X176530109Y-92160213D01*
X176379786Y-92009890D01*
X176207820Y-91884951D01*
X176207115Y-91884591D01*
X176199054Y-91880485D01*
X176148259Y-91832512D01*
X176131463Y-91764692D01*
X176153999Y-91698556D01*
X176199054Y-91659515D01*
X176207816Y-91655051D01*
X176243675Y-91628998D01*
X176379786Y-91530109D01*
X176379788Y-91530106D01*
X176379792Y-91530104D01*
X176530104Y-91379792D01*
X176530106Y-91379788D01*
X176530109Y-91379786D01*
X176655048Y-91207820D01*
X176655047Y-91207820D01*
X176655051Y-91207816D01*
X176751557Y-91018412D01*
X176817246Y-90816243D01*
X176850500Y-90606287D01*
X176850500Y-90393713D01*
X176817246Y-90183757D01*
X176751557Y-89981588D01*
X176655051Y-89792184D01*
X176655049Y-89792181D01*
X176655048Y-89792179D01*
X176530109Y-89620213D01*
X176379786Y-89469890D01*
X176207817Y-89344949D01*
X176198504Y-89340204D01*
X176147707Y-89292230D01*
X176130912Y-89224409D01*
X176153449Y-89158274D01*
X176198507Y-89119232D01*
X176207555Y-89114622D01*
X176261716Y-89075270D01*
X176261717Y-89075270D01*
X175629408Y-88442962D01*
X175692993Y-88425925D01*
X175807007Y-88360099D01*
X175900099Y-88267007D01*
X175965925Y-88152993D01*
X175982962Y-88089409D01*
X176615270Y-88721717D01*
X176615270Y-88721716D01*
X176654622Y-88667554D01*
X176751095Y-88478217D01*
X176816757Y-88276130D01*
X176816757Y-88276127D01*
X176850000Y-88066246D01*
X176850000Y-87853753D01*
X176816757Y-87643872D01*
X176816757Y-87643869D01*
X176751095Y-87441782D01*
X176654624Y-87252449D01*
X176615270Y-87198282D01*
X176615269Y-87198282D01*
X175982962Y-87830590D01*
X175965925Y-87767007D01*
X175900099Y-87652993D01*
X175807007Y-87559901D01*
X175692993Y-87494075D01*
X175629409Y-87477037D01*
X176261716Y-86844728D01*
X176207550Y-86805375D01*
X176018217Y-86708904D01*
X175816129Y-86643242D01*
X175606246Y-86610000D01*
X175393754Y-86610000D01*
X175183872Y-86643242D01*
X175183869Y-86643242D01*
X174981782Y-86708904D01*
X174792439Y-86805380D01*
X174738282Y-86844727D01*
X174738282Y-86844728D01*
X175370591Y-87477037D01*
X175307007Y-87494075D01*
X175192993Y-87559901D01*
X175099901Y-87652993D01*
X175034075Y-87767007D01*
X175017037Y-87830591D01*
X174384728Y-87198282D01*
X174384727Y-87198282D01*
X174345380Y-87252439D01*
X174248904Y-87441782D01*
X174183242Y-87643869D01*
X174183242Y-87643872D01*
X174150000Y-87853753D01*
X174150000Y-88066246D01*
X174183242Y-88276127D01*
X174183242Y-88276130D01*
X174248904Y-88478217D01*
X174345375Y-88667550D01*
X174384728Y-88721716D01*
X175017037Y-88089408D01*
X175034075Y-88152993D01*
X175099901Y-88267007D01*
X175192993Y-88360099D01*
X175307007Y-88425925D01*
X175370590Y-88442962D01*
X174738282Y-89075269D01*
X174738282Y-89075270D01*
X174792452Y-89114626D01*
X174792451Y-89114626D01*
X174801495Y-89119234D01*
X174852292Y-89167208D01*
X174869087Y-89235029D01*
X174846550Y-89301164D01*
X174801499Y-89340202D01*
X174792182Y-89344949D01*
X174620213Y-89469890D01*
X174469890Y-89620213D01*
X174344951Y-89792179D01*
X174248444Y-89981585D01*
X174182753Y-90183760D01*
X174149500Y-90393713D01*
X123500458Y-90393713D01*
X123500458Y-89851685D01*
X123500472Y-89851637D01*
X123500530Y-89602086D01*
X123500530Y-89602078D01*
X123500529Y-89602077D01*
X123500530Y-89602072D01*
X123465676Y-89207173D01*
X123414792Y-88921153D01*
X150474500Y-88921153D01*
X150474500Y-89078846D01*
X150505261Y-89233489D01*
X150505264Y-89233501D01*
X150565602Y-89379172D01*
X150565609Y-89379185D01*
X150653210Y-89510288D01*
X150653213Y-89510292D01*
X150764707Y-89621786D01*
X150764711Y-89621789D01*
X150895814Y-89709390D01*
X150895827Y-89709397D01*
X151041498Y-89769735D01*
X151041503Y-89769737D01*
X151195097Y-89800289D01*
X151196153Y-89800499D01*
X151196156Y-89800500D01*
X151196158Y-89800500D01*
X151353844Y-89800500D01*
X151353845Y-89800499D01*
X151508497Y-89769737D01*
X151654179Y-89709394D01*
X151785289Y-89621789D01*
X151896789Y-89510289D01*
X151984394Y-89379179D01*
X152044737Y-89233497D01*
X152075500Y-89078842D01*
X152075500Y-88921158D01*
X152075500Y-88921155D01*
X152051308Y-88799536D01*
X152051308Y-88799535D01*
X152047706Y-88781431D01*
X154177312Y-88781431D01*
X154177312Y-88939124D01*
X154208073Y-89093767D01*
X154208076Y-89093779D01*
X154268414Y-89239450D01*
X154268421Y-89239463D01*
X154356022Y-89370566D01*
X154356025Y-89370570D01*
X154467519Y-89482064D01*
X154467523Y-89482067D01*
X154598626Y-89569668D01*
X154598639Y-89569675D01*
X154744310Y-89630013D01*
X154744315Y-89630015D01*
X154898965Y-89660777D01*
X154898968Y-89660778D01*
X154898970Y-89660778D01*
X155056656Y-89660778D01*
X155056657Y-89660777D01*
X155211309Y-89630015D01*
X155356991Y-89569672D01*
X155488101Y-89482067D01*
X155599601Y-89370567D01*
X155687206Y-89239457D01*
X155747549Y-89093775D01*
X155778312Y-88939120D01*
X155778312Y-88781436D01*
X155778312Y-88781433D01*
X155778311Y-88781431D01*
X155755659Y-88667554D01*
X155747549Y-88626781D01*
X155745077Y-88620814D01*
X155687209Y-88481105D01*
X155687202Y-88481092D01*
X155599601Y-88349989D01*
X155599598Y-88349985D01*
X155488104Y-88238491D01*
X155488100Y-88238488D01*
X155356997Y-88150887D01*
X155356984Y-88150880D01*
X155211313Y-88090542D01*
X155211301Y-88090539D01*
X155056657Y-88059778D01*
X155056654Y-88059778D01*
X154898970Y-88059778D01*
X154898967Y-88059778D01*
X154744322Y-88090539D01*
X154744310Y-88090542D01*
X154598639Y-88150880D01*
X154598626Y-88150887D01*
X154467523Y-88238488D01*
X154467519Y-88238491D01*
X154356025Y-88349985D01*
X154356022Y-88349989D01*
X154268421Y-88481092D01*
X154268414Y-88481105D01*
X154208076Y-88626776D01*
X154208073Y-88626788D01*
X154177312Y-88781431D01*
X152047706Y-88781431D01*
X152044738Y-88766510D01*
X152044737Y-88766503D01*
X152026186Y-88721716D01*
X151984397Y-88620827D01*
X151984390Y-88620814D01*
X151896789Y-88489711D01*
X151896786Y-88489707D01*
X151785292Y-88378213D01*
X151785288Y-88378210D01*
X151654185Y-88290609D01*
X151654172Y-88290602D01*
X151508501Y-88230264D01*
X151508489Y-88230261D01*
X151353845Y-88199500D01*
X151353842Y-88199500D01*
X151196158Y-88199500D01*
X151196155Y-88199500D01*
X151041510Y-88230261D01*
X151041498Y-88230264D01*
X150895827Y-88290602D01*
X150895814Y-88290609D01*
X150764711Y-88378210D01*
X150764707Y-88378213D01*
X150653213Y-88489707D01*
X150653210Y-88489711D01*
X150565609Y-88620814D01*
X150565602Y-88620827D01*
X150505264Y-88766498D01*
X150505261Y-88766510D01*
X150474500Y-88921153D01*
X123414792Y-88921153D01*
X123396239Y-88816867D01*
X123292758Y-88434177D01*
X123156032Y-88062066D01*
X122987122Y-87703417D01*
X122952377Y-87643869D01*
X122787332Y-87361001D01*
X122558222Y-87037490D01*
X122558216Y-87037482D01*
X122502815Y-86972271D01*
X122469374Y-86932908D01*
X122301546Y-86735360D01*
X122174452Y-86610000D01*
X122019313Y-86456977D01*
X122019303Y-86456969D01*
X121713685Y-86204472D01*
X121387048Y-85979820D01*
X121387039Y-85979814D01*
X121215765Y-85883063D01*
X121215740Y-85883048D01*
X121157101Y-85849905D01*
X121157100Y-85849904D01*
X99692502Y-73717739D01*
X97251753Y-72338185D01*
X97251739Y-72338176D01*
X97231749Y-72326877D01*
X97231684Y-72326810D01*
X97025831Y-72210407D01*
X97025824Y-72210403D01*
X96689382Y-72055222D01*
X96461264Y-71971981D01*
X96341332Y-71928218D01*
X96341328Y-71928217D01*
X96341323Y-71928215D01*
X95984030Y-71830249D01*
X95984016Y-71830246D01*
X95619882Y-71761976D01*
X95619848Y-71761971D01*
X95251330Y-71723858D01*
X94880910Y-71716159D01*
X94880907Y-71716159D01*
X94880901Y-71716159D01*
X94731257Y-71725373D01*
X94511102Y-71738929D01*
X94297949Y-71769788D01*
X94144419Y-71792016D01*
X94144414Y-71792017D01*
X94144408Y-71792018D01*
X93783356Y-71875053D01*
X93783349Y-71875054D01*
X93430309Y-71987493D01*
X93260628Y-72057401D01*
X93257463Y-72058654D01*
X92625557Y-72298924D01*
X92619179Y-72301153D01*
X91976722Y-72506136D01*
X91970231Y-72508013D01*
X91317594Y-72677689D01*
X91311010Y-72679211D01*
X90650067Y-72813091D01*
X90643411Y-72814251D01*
X89976195Y-72911926D01*
X89969485Y-72912723D01*
X89297893Y-72973912D01*
X89291150Y-72974341D01*
X88617263Y-72998856D01*
X88610507Y-72998918D01*
X87936251Y-72986690D01*
X87929501Y-72986383D01*
X87256936Y-72937447D01*
X87250212Y-72936773D01*
X86581306Y-72851273D01*
X86574630Y-72850234D01*
X85911376Y-72728426D01*
X85904766Y-72727025D01*
X85249128Y-72569270D01*
X85242609Y-72567512D01*
X85040827Y-72507161D01*
X84596532Y-72374276D01*
X84590113Y-72372164D01*
X83955526Y-72144024D01*
X83949233Y-72141566D01*
X83328026Y-71879203D01*
X83321875Y-71876406D01*
X82715851Y-71580581D01*
X82709862Y-71577452D01*
X82120883Y-71249072D01*
X82115074Y-71245622D01*
X81544845Y-70885642D01*
X81539231Y-70881881D01*
X80989450Y-70491367D01*
X80984050Y-70487306D01*
X80456355Y-70067424D01*
X80451207Y-70063094D01*
X79947162Y-69615088D01*
X79942236Y-69610463D01*
X79657829Y-69328490D01*
X79463351Y-69135675D01*
X79458704Y-69130811D01*
X79006377Y-68630625D01*
X79001984Y-68625492D01*
X78577599Y-68101443D01*
X78573491Y-68096078D01*
X78299260Y-67716946D01*
X78178274Y-67549679D01*
X78174465Y-67544100D01*
X78133377Y-67480236D01*
X77809581Y-66976959D01*
X77806089Y-66971190D01*
X77772045Y-66911344D01*
X77682299Y-66753578D01*
X77509694Y-66450153D01*
X77477588Y-66393713D01*
X81149500Y-66393713D01*
X81149500Y-66606287D01*
X81182754Y-66816243D01*
X81213654Y-66911344D01*
X81248444Y-67018414D01*
X81344951Y-67207820D01*
X81469890Y-67379786D01*
X81620213Y-67530109D01*
X81792179Y-67655048D01*
X81792181Y-67655049D01*
X81792184Y-67655051D01*
X81981588Y-67751557D01*
X82183757Y-67817246D01*
X82393713Y-67850500D01*
X82393714Y-67850500D01*
X82606286Y-67850500D01*
X82606287Y-67850500D01*
X82816243Y-67817246D01*
X83018412Y-67751557D01*
X83207816Y-67655051D01*
X83229789Y-67639086D01*
X83379786Y-67530109D01*
X83379788Y-67530106D01*
X83379792Y-67530104D01*
X83530104Y-67379792D01*
X83530106Y-67379788D01*
X83530109Y-67379786D01*
X83655048Y-67207820D01*
X83655047Y-67207820D01*
X83655051Y-67207816D01*
X83751557Y-67018412D01*
X83817246Y-66816243D01*
X83850500Y-66606287D01*
X83850500Y-66393713D01*
X93149500Y-66393713D01*
X93149500Y-66606287D01*
X93182754Y-66816243D01*
X93213654Y-66911344D01*
X93248444Y-67018414D01*
X93344951Y-67207820D01*
X93469890Y-67379786D01*
X93620213Y-67530109D01*
X93792179Y-67655048D01*
X93792181Y-67655049D01*
X93792184Y-67655051D01*
X93981588Y-67751557D01*
X94183757Y-67817246D01*
X94393713Y-67850500D01*
X94393714Y-67850500D01*
X94606286Y-67850500D01*
X94606287Y-67850500D01*
X94816243Y-67817246D01*
X95018412Y-67751557D01*
X95207816Y-67655051D01*
X95229789Y-67639086D01*
X95379786Y-67530109D01*
X95379788Y-67530106D01*
X95379792Y-67530104D01*
X95530104Y-67379792D01*
X95530106Y-67379788D01*
X95530109Y-67379786D01*
X95655048Y-67207820D01*
X95655047Y-67207820D01*
X95655051Y-67207816D01*
X95751557Y-67018412D01*
X95817246Y-66816243D01*
X95850500Y-66606287D01*
X95850500Y-66393713D01*
X95817246Y-66183757D01*
X95751557Y-65981588D01*
X95655051Y-65792184D01*
X95655049Y-65792181D01*
X95655048Y-65792179D01*
X95530109Y-65620213D01*
X95379786Y-65469890D01*
X95207820Y-65344951D01*
X95018414Y-65248444D01*
X95018413Y-65248443D01*
X95018412Y-65248443D01*
X94816243Y-65182754D01*
X94816241Y-65182753D01*
X94816240Y-65182753D01*
X94654957Y-65157208D01*
X94606287Y-65149500D01*
X94393713Y-65149500D01*
X94345042Y-65157208D01*
X94183760Y-65182753D01*
X93981585Y-65248444D01*
X93792179Y-65344951D01*
X93620213Y-65469890D01*
X93469890Y-65620213D01*
X93344951Y-65792179D01*
X93248444Y-65981585D01*
X93182753Y-66183760D01*
X93179367Y-66205139D01*
X93149500Y-66393713D01*
X83850500Y-66393713D01*
X83817246Y-66183757D01*
X83751557Y-65981588D01*
X83655051Y-65792184D01*
X83655049Y-65792181D01*
X83655048Y-65792179D01*
X83530109Y-65620213D01*
X83379786Y-65469890D01*
X83207820Y-65344951D01*
X83018414Y-65248444D01*
X83018413Y-65248443D01*
X83018412Y-65248443D01*
X82816243Y-65182754D01*
X82816241Y-65182753D01*
X82816240Y-65182753D01*
X82654957Y-65157208D01*
X82606287Y-65149500D01*
X82393713Y-65149500D01*
X82345042Y-65157208D01*
X82183760Y-65182753D01*
X81981585Y-65248444D01*
X81792179Y-65344951D01*
X81620213Y-65469890D01*
X81469890Y-65620213D01*
X81344951Y-65792179D01*
X81248444Y-65981585D01*
X81182753Y-66183760D01*
X81179367Y-66205139D01*
X81149500Y-66393713D01*
X77477588Y-66393713D01*
X77472651Y-66385035D01*
X77469458Y-66379047D01*
X77164554Y-65767234D01*
X77161677Y-65761037D01*
X77100956Y-65620213D01*
X76891026Y-65133339D01*
X76888492Y-65126984D01*
X76652914Y-64485306D01*
X76650732Y-64478814D01*
X76450944Y-63825114D01*
X76449124Y-63818511D01*
X76285726Y-63154741D01*
X76284273Y-63148048D01*
X76178136Y-62584408D01*
X76157778Y-62476295D01*
X76156699Y-62469541D01*
X76076814Y-61862676D01*
X76067488Y-61791827D01*
X76066783Y-61785021D01*
X76065234Y-61764588D01*
X76015126Y-61103413D01*
X76014798Y-61096576D01*
X76012506Y-60984254D01*
X76000855Y-60413162D01*
X76000904Y-60406316D01*
X76006439Y-60247529D01*
X76024718Y-59723121D01*
X76025141Y-59716354D01*
X76086641Y-59035523D01*
X76087440Y-59028761D01*
X76186439Y-58352346D01*
X76187607Y-58345661D01*
X76323801Y-57675757D01*
X76325335Y-57669147D01*
X76498317Y-57007753D01*
X76500216Y-57001237D01*
X76709443Y-56350434D01*
X76711693Y-56344043D01*
X76956539Y-55705770D01*
X76959165Y-55699456D01*
X77238865Y-55075705D01*
X77241803Y-55069610D01*
X77555526Y-54462238D01*
X77558833Y-54456249D01*
X77562560Y-54449917D01*
X77595644Y-54393713D01*
X81149500Y-54393713D01*
X81149500Y-54606286D01*
X81171237Y-54743532D01*
X81182754Y-54816243D01*
X81239565Y-54991089D01*
X81248444Y-55018414D01*
X81344951Y-55207820D01*
X81469890Y-55379786D01*
X81620213Y-55530109D01*
X81792179Y-55655048D01*
X81792181Y-55655049D01*
X81792184Y-55655051D01*
X81981588Y-55751557D01*
X82183757Y-55817246D01*
X82393713Y-55850500D01*
X82393714Y-55850500D01*
X82606286Y-55850500D01*
X82606287Y-55850500D01*
X82816243Y-55817246D01*
X83018412Y-55751557D01*
X83207816Y-55655051D01*
X83229789Y-55639086D01*
X83379786Y-55530109D01*
X83379788Y-55530106D01*
X83379792Y-55530104D01*
X83530104Y-55379792D01*
X83530106Y-55379788D01*
X83530109Y-55379786D01*
X83655048Y-55207820D01*
X83655047Y-55207820D01*
X83655051Y-55207816D01*
X83751557Y-55018412D01*
X83817246Y-54816243D01*
X83850500Y-54606287D01*
X83850500Y-54393713D01*
X93149500Y-54393713D01*
X93149500Y-54606286D01*
X93171237Y-54743532D01*
X93182754Y-54816243D01*
X93239565Y-54991089D01*
X93248444Y-55018414D01*
X93344951Y-55207820D01*
X93469890Y-55379786D01*
X93620213Y-55530109D01*
X93792179Y-55655048D01*
X93792181Y-55655049D01*
X93792184Y-55655051D01*
X93981588Y-55751557D01*
X94183757Y-55817246D01*
X94393713Y-55850500D01*
X94393714Y-55850500D01*
X94606286Y-55850500D01*
X94606287Y-55850500D01*
X94816243Y-55817246D01*
X95018412Y-55751557D01*
X95207816Y-55655051D01*
X95229789Y-55639086D01*
X95379786Y-55530109D01*
X95379788Y-55530106D01*
X95379792Y-55530104D01*
X95530104Y-55379792D01*
X95530106Y-55379788D01*
X95530109Y-55379786D01*
X95655048Y-55207820D01*
X95655047Y-55207820D01*
X95655051Y-55207816D01*
X95751557Y-55018412D01*
X95817246Y-54816243D01*
X95850500Y-54606287D01*
X95850500Y-54393713D01*
X95817246Y-54183757D01*
X95751557Y-53981588D01*
X95655051Y-53792184D01*
X95655049Y-53792181D01*
X95655048Y-53792179D01*
X95530109Y-53620213D01*
X95379786Y-53469890D01*
X95207820Y-53344951D01*
X95018414Y-53248444D01*
X95018413Y-53248443D01*
X95018412Y-53248443D01*
X94816243Y-53182754D01*
X94816241Y-53182753D01*
X94816240Y-53182753D01*
X94654957Y-53157208D01*
X94606287Y-53149500D01*
X94393713Y-53149500D01*
X94345042Y-53157208D01*
X94183760Y-53182753D01*
X93981585Y-53248444D01*
X93792179Y-53344951D01*
X93620213Y-53469890D01*
X93469890Y-53620213D01*
X93344951Y-53792179D01*
X93248444Y-53981585D01*
X93182753Y-54183760D01*
X93149500Y-54393713D01*
X83850500Y-54393713D01*
X83817246Y-54183757D01*
X83751557Y-53981588D01*
X83655051Y-53792184D01*
X83655049Y-53792181D01*
X83655048Y-53792179D01*
X83530109Y-53620213D01*
X83379786Y-53469890D01*
X83207820Y-53344951D01*
X83018414Y-53248444D01*
X83018413Y-53248443D01*
X83018412Y-53248443D01*
X82816243Y-53182754D01*
X82816241Y-53182753D01*
X82816240Y-53182753D01*
X82654957Y-53157208D01*
X82606287Y-53149500D01*
X82393713Y-53149500D01*
X82345042Y-53157208D01*
X82183760Y-53182753D01*
X81981585Y-53248444D01*
X81792179Y-53344951D01*
X81620213Y-53469890D01*
X81469890Y-53620213D01*
X81344951Y-53792179D01*
X81248444Y-53981585D01*
X81182753Y-54183760D01*
X81149500Y-54393713D01*
X77595644Y-54393713D01*
X77905592Y-53867160D01*
X77909207Y-53861388D01*
X78287989Y-53292306D01*
X78291915Y-53286747D01*
X78701529Y-52739461D01*
X78705756Y-52734127D01*
X79144969Y-52210287D01*
X79149480Y-52205199D01*
X79616948Y-51706406D01*
X79621740Y-51701569D01*
X80116009Y-51229373D01*
X80121087Y-51224783D01*
X80640675Y-50780595D01*
X80645997Y-50776295D01*
X80711064Y-50726617D01*
X81189328Y-50361467D01*
X81194813Y-50357513D01*
X81760288Y-49973270D01*
X81765996Y-49969618D01*
X82351764Y-49617221D01*
X82357701Y-49613869D01*
X82962021Y-49294357D01*
X82968132Y-49291339D01*
X83589194Y-49005671D01*
X83595436Y-49003007D01*
X84231304Y-48752074D01*
X84237716Y-48749745D01*
X84886497Y-48534295D01*
X84892993Y-48532336D01*
X85552663Y-48353040D01*
X85559307Y-48351430D01*
X86227842Y-48208837D01*
X86234557Y-48207598D01*
X86909939Y-48102136D01*
X86916714Y-48101269D01*
X87596935Y-48033254D01*
X87603697Y-48032766D01*
X88286622Y-48002413D01*
X88293463Y-48002299D01*
X88977000Y-48009699D01*
X88983842Y-48009962D01*
X89665911Y-48055091D01*
X89672675Y-48055726D01*
X90327145Y-48135512D01*
X90351266Y-48138453D01*
X90358041Y-48139470D01*
X91030978Y-48259529D01*
X91037623Y-48260904D01*
X91702956Y-48417947D01*
X91709557Y-48419699D01*
X91945985Y-48489490D01*
X92365161Y-48613226D01*
X92371674Y-48615346D01*
X93015576Y-48844770D01*
X93021958Y-48847244D01*
X93652234Y-49111882D01*
X93658457Y-49114699D01*
X94222177Y-49388930D01*
X94273145Y-49413724D01*
X94279212Y-49416885D01*
X94876471Y-49749405D01*
X94882352Y-49752896D01*
X95460307Y-50117865D01*
X95465995Y-50121680D01*
X96022944Y-50518022D01*
X96028412Y-50522146D01*
X96562608Y-50948619D01*
X96567841Y-50953039D01*
X97077667Y-51408350D01*
X97082647Y-51413051D01*
X97566586Y-51895846D01*
X97571288Y-51900803D01*
X97844416Y-52205181D01*
X98027816Y-52409565D01*
X98032248Y-52414787D01*
X98459999Y-52947994D01*
X98464126Y-52953441D01*
X98861773Y-53509437D01*
X98865602Y-53515115D01*
X98899633Y-53568724D01*
X99194496Y-54033225D01*
X99231942Y-54092213D01*
X99235447Y-54098086D01*
X99260985Y-54143703D01*
X99569374Y-54694551D01*
X99572553Y-54700617D01*
X99873027Y-55314587D01*
X99875867Y-55320820D01*
X100141988Y-55950456D01*
X100144479Y-55956836D01*
X100375427Y-56600199D01*
X100377562Y-56606707D01*
X100572633Y-57261831D01*
X100574406Y-57268447D01*
X100733007Y-57933349D01*
X100734412Y-57940052D01*
X100856347Y-58614278D01*
X100856907Y-58617643D01*
X100857533Y-58621744D01*
X100866601Y-58681222D01*
X100866611Y-58681245D01*
X100867802Y-58689051D01*
X100867801Y-58689055D01*
X100867808Y-58689087D01*
X100884577Y-58799216D01*
X100884578Y-58799221D01*
X100884579Y-58799225D01*
X100970337Y-59159666D01*
X101085427Y-59511840D01*
X101229071Y-59853364D01*
X101400295Y-60181928D01*
X101496869Y-60335050D01*
X101597943Y-60495308D01*
X101820674Y-60791383D01*
X102066981Y-61068149D01*
X102066986Y-61068154D01*
X102066989Y-61068157D01*
X102335214Y-61323749D01*
X102623537Y-61556434D01*
X102930007Y-61764636D01*
X103090091Y-61855078D01*
X103103532Y-61862675D01*
X103103533Y-61862676D01*
X103162611Y-61896069D01*
X103162622Y-61896073D01*
X124476169Y-73942861D01*
X134216305Y-79448156D01*
X134990075Y-79885504D01*
X134990077Y-79885506D01*
X135025476Y-79905513D01*
X135061190Y-79925699D01*
X135061205Y-79925715D01*
X135061209Y-79925710D01*
X135215509Y-80012957D01*
X135566711Y-80173478D01*
X135687930Y-80216763D01*
X135930346Y-80303325D01*
X135930369Y-80303333D01*
X135930372Y-80303333D01*
X135930376Y-80303335D01*
X136117090Y-80352451D01*
X136303812Y-80401569D01*
X136303816Y-80401570D01*
X136684231Y-80467452D01*
X136684295Y-80467463D01*
X136684301Y-80467463D01*
X136684312Y-80467465D01*
X136839519Y-80480805D01*
X137069024Y-80500532D01*
X137262083Y-80500500D01*
X137262099Y-80500500D01*
X137327990Y-80500500D01*
X163672015Y-80500500D01*
X163672022Y-80500502D01*
X163737914Y-80500500D01*
X163759365Y-80500500D01*
X163930976Y-80500524D01*
X164163781Y-80480509D01*
X164315675Y-80467452D01*
X164315681Y-80467451D01*
X164696142Y-80401556D01*
X165069562Y-80303325D01*
X165433200Y-80173478D01*
X165784382Y-80012970D01*
X165938709Y-79925710D01*
X165950437Y-79919079D01*
X165950447Y-79919073D01*
X165950456Y-79919068D01*
X165962963Y-79911998D01*
X165962973Y-79911996D01*
X165962972Y-79911994D01*
X166009805Y-79885526D01*
X166009806Y-79885524D01*
X166020117Y-79879697D01*
X166020136Y-79879683D01*
X189879932Y-66393713D01*
X205149500Y-66393713D01*
X205149500Y-66606287D01*
X205182754Y-66816243D01*
X205213654Y-66911344D01*
X205248444Y-67018414D01*
X205344951Y-67207820D01*
X205469890Y-67379786D01*
X205620213Y-67530109D01*
X205792179Y-67655048D01*
X205792181Y-67655049D01*
X205792184Y-67655051D01*
X205981588Y-67751557D01*
X206183757Y-67817246D01*
X206393713Y-67850500D01*
X206393714Y-67850500D01*
X206606286Y-67850500D01*
X206606287Y-67850500D01*
X206816243Y-67817246D01*
X207018412Y-67751557D01*
X207207816Y-67655051D01*
X207229789Y-67639086D01*
X207379786Y-67530109D01*
X207379788Y-67530106D01*
X207379792Y-67530104D01*
X207530104Y-67379792D01*
X207530106Y-67379788D01*
X207530109Y-67379786D01*
X207655048Y-67207820D01*
X207655047Y-67207820D01*
X207655051Y-67207816D01*
X207751557Y-67018412D01*
X207817246Y-66816243D01*
X207850500Y-66606287D01*
X207850500Y-66393713D01*
X217149500Y-66393713D01*
X217149500Y-66606287D01*
X217182754Y-66816243D01*
X217213654Y-66911344D01*
X217248444Y-67018414D01*
X217344951Y-67207820D01*
X217469890Y-67379786D01*
X217620213Y-67530109D01*
X217792179Y-67655048D01*
X217792181Y-67655049D01*
X217792184Y-67655051D01*
X217981588Y-67751557D01*
X218183757Y-67817246D01*
X218393713Y-67850500D01*
X218393714Y-67850500D01*
X218606286Y-67850500D01*
X218606287Y-67850500D01*
X218816243Y-67817246D01*
X219018412Y-67751557D01*
X219207816Y-67655051D01*
X219229789Y-67639086D01*
X219379786Y-67530109D01*
X219379788Y-67530106D01*
X219379792Y-67530104D01*
X219530104Y-67379792D01*
X219530106Y-67379788D01*
X219530109Y-67379786D01*
X219655048Y-67207820D01*
X219655047Y-67207820D01*
X219655051Y-67207816D01*
X219751557Y-67018412D01*
X219817246Y-66816243D01*
X219850500Y-66606287D01*
X219850500Y-66393713D01*
X219817246Y-66183757D01*
X219751557Y-65981588D01*
X219655051Y-65792184D01*
X219655049Y-65792181D01*
X219655048Y-65792179D01*
X219530109Y-65620213D01*
X219379786Y-65469890D01*
X219207820Y-65344951D01*
X219018414Y-65248444D01*
X219018413Y-65248443D01*
X219018412Y-65248443D01*
X218816243Y-65182754D01*
X218816241Y-65182753D01*
X218816240Y-65182753D01*
X218654957Y-65157208D01*
X218606287Y-65149500D01*
X218393713Y-65149500D01*
X218345042Y-65157208D01*
X218183760Y-65182753D01*
X217981585Y-65248444D01*
X217792179Y-65344951D01*
X217620213Y-65469890D01*
X217469890Y-65620213D01*
X217344951Y-65792179D01*
X217248444Y-65981585D01*
X217182753Y-66183760D01*
X217179367Y-66205139D01*
X217149500Y-66393713D01*
X207850500Y-66393713D01*
X207817246Y-66183757D01*
X207751557Y-65981588D01*
X207655051Y-65792184D01*
X207655049Y-65792181D01*
X207655048Y-65792179D01*
X207530109Y-65620213D01*
X207379786Y-65469890D01*
X207207820Y-65344951D01*
X207018414Y-65248444D01*
X207018413Y-65248443D01*
X207018412Y-65248443D01*
X206816243Y-65182754D01*
X206816241Y-65182753D01*
X206816240Y-65182753D01*
X206654957Y-65157208D01*
X206606287Y-65149500D01*
X206393713Y-65149500D01*
X206345042Y-65157208D01*
X206183760Y-65182753D01*
X205981585Y-65248444D01*
X205792179Y-65344951D01*
X205620213Y-65469890D01*
X205469890Y-65620213D01*
X205344951Y-65792179D01*
X205248444Y-65981585D01*
X205182753Y-66183760D01*
X205179367Y-66205139D01*
X205149500Y-66393713D01*
X189879932Y-66393713D01*
X197966023Y-61823314D01*
X197966026Y-61823310D01*
X197973021Y-61819357D01*
X197973414Y-61819099D01*
X198069916Y-61764584D01*
X198376392Y-61556392D01*
X198664719Y-61323717D01*
X198932949Y-61068132D01*
X199179265Y-60791367D01*
X199402002Y-60495294D01*
X199599651Y-60181917D01*
X199770876Y-59853355D01*
X199914519Y-59511833D01*
X200029607Y-59159660D01*
X200115361Y-58799221D01*
X200142382Y-58621744D01*
X200142993Y-58617738D01*
X200143530Y-58614503D01*
X200263860Y-57947920D01*
X200265244Y-57941297D01*
X200319647Y-57712241D01*
X200421363Y-57283979D01*
X200423092Y-57277491D01*
X200614844Y-56629690D01*
X200616938Y-56623265D01*
X200714168Y-56350469D01*
X200843754Y-55986888D01*
X200846199Y-55980581D01*
X201098071Y-55379792D01*
X201107403Y-55357531D01*
X201110179Y-55351386D01*
X201405004Y-54743495D01*
X201408085Y-54737560D01*
X201598694Y-54393713D01*
X205149500Y-54393713D01*
X205149500Y-54606286D01*
X205171237Y-54743532D01*
X205182754Y-54816243D01*
X205239565Y-54991089D01*
X205248444Y-55018414D01*
X205344951Y-55207820D01*
X205469890Y-55379786D01*
X205620213Y-55530109D01*
X205792179Y-55655048D01*
X205792181Y-55655049D01*
X205792184Y-55655051D01*
X205981588Y-55751557D01*
X206183757Y-55817246D01*
X206393713Y-55850500D01*
X206393714Y-55850500D01*
X206606286Y-55850500D01*
X206606287Y-55850500D01*
X206816243Y-55817246D01*
X207018412Y-55751557D01*
X207207816Y-55655051D01*
X207229789Y-55639086D01*
X207379786Y-55530109D01*
X207379788Y-55530106D01*
X207379792Y-55530104D01*
X207530104Y-55379792D01*
X207530106Y-55379788D01*
X207530109Y-55379786D01*
X207655048Y-55207820D01*
X207655047Y-55207820D01*
X207655051Y-55207816D01*
X207751557Y-55018412D01*
X207817246Y-54816243D01*
X207850500Y-54606287D01*
X207850500Y-54393713D01*
X217149500Y-54393713D01*
X217149500Y-54606286D01*
X217171237Y-54743532D01*
X217182754Y-54816243D01*
X217239565Y-54991089D01*
X217248444Y-55018414D01*
X217344951Y-55207820D01*
X217469890Y-55379786D01*
X217620213Y-55530109D01*
X217792179Y-55655048D01*
X217792181Y-55655049D01*
X217792184Y-55655051D01*
X217981588Y-55751557D01*
X218183757Y-55817246D01*
X218393713Y-55850500D01*
X218393714Y-55850500D01*
X218606286Y-55850500D01*
X218606287Y-55850500D01*
X218816243Y-55817246D01*
X219018412Y-55751557D01*
X219207816Y-55655051D01*
X219229789Y-55639086D01*
X219379786Y-55530109D01*
X219379788Y-55530106D01*
X219379792Y-55530104D01*
X219530104Y-55379792D01*
X219530106Y-55379788D01*
X219530109Y-55379786D01*
X219655048Y-55207820D01*
X219655047Y-55207820D01*
X219655051Y-55207816D01*
X219751557Y-55018412D01*
X219817246Y-54816243D01*
X219850500Y-54606287D01*
X219850500Y-54393713D01*
X219817246Y-54183757D01*
X219751557Y-53981588D01*
X219655051Y-53792184D01*
X219655049Y-53792181D01*
X219655048Y-53792179D01*
X219530109Y-53620213D01*
X219379786Y-53469890D01*
X219207820Y-53344951D01*
X219018414Y-53248444D01*
X219018413Y-53248443D01*
X219018412Y-53248443D01*
X218816243Y-53182754D01*
X218816241Y-53182753D01*
X218816240Y-53182753D01*
X218654957Y-53157208D01*
X218606287Y-53149500D01*
X218393713Y-53149500D01*
X218345042Y-53157208D01*
X218183760Y-53182753D01*
X217981585Y-53248444D01*
X217792179Y-53344951D01*
X217620213Y-53469890D01*
X217469890Y-53620213D01*
X217344951Y-53792179D01*
X217248444Y-53981585D01*
X217182753Y-54183760D01*
X217149500Y-54393713D01*
X207850500Y-54393713D01*
X207817246Y-54183757D01*
X207751557Y-53981588D01*
X207655051Y-53792184D01*
X207655049Y-53792181D01*
X207655048Y-53792179D01*
X207530109Y-53620213D01*
X207379786Y-53469890D01*
X207207820Y-53344951D01*
X207018414Y-53248444D01*
X207018413Y-53248443D01*
X207018412Y-53248443D01*
X206816243Y-53182754D01*
X206816241Y-53182753D01*
X206816240Y-53182753D01*
X206654957Y-53157208D01*
X206606287Y-53149500D01*
X206393713Y-53149500D01*
X206345042Y-53157208D01*
X206183760Y-53182753D01*
X205981585Y-53248444D01*
X205792179Y-53344951D01*
X205620213Y-53469890D01*
X205469890Y-53620213D01*
X205344951Y-53792179D01*
X205248444Y-53981585D01*
X205182753Y-54183760D01*
X205149500Y-54393713D01*
X201598694Y-54393713D01*
X201735651Y-54146651D01*
X201739070Y-54140862D01*
X202098396Y-53568701D01*
X202102122Y-53563115D01*
X202492118Y-53011438D01*
X202496152Y-53006050D01*
X202915680Y-52476468D01*
X202919983Y-52471330D01*
X203367796Y-51965416D01*
X203372383Y-51960512D01*
X203847127Y-51479798D01*
X203851981Y-51475144D01*
X204352221Y-51021079D01*
X204357351Y-51016672D01*
X204441085Y-50948619D01*
X204881630Y-50590576D01*
X204886958Y-50586481D01*
X205433733Y-50189610D01*
X205439270Y-50185817D01*
X206006900Y-49819367D01*
X206012630Y-49815886D01*
X206599380Y-49480974D01*
X206605325Y-49477793D01*
X207209479Y-49175396D01*
X207215578Y-49172549D01*
X207835340Y-48903570D01*
X207841588Y-48901059D01*
X208475108Y-48666297D01*
X208481435Y-48664147D01*
X209126826Y-48464305D01*
X209133324Y-48462486D01*
X209788646Y-48298163D01*
X209795189Y-48296711D01*
X210458500Y-48168393D01*
X210465166Y-48167291D01*
X211134513Y-48075359D01*
X211141169Y-48074629D01*
X211814520Y-48019360D01*
X211821213Y-48018993D01*
X212495821Y-48000572D01*
X212502632Y-48000574D01*
G37*
%TD.AperFunction*%
%TD*%
M02*
